/* XPM */
static char *result[] = {
/* columns rows colors chars-per-pixel */
"64 64 102 2 ",
"   c #000000",
".  c #060A03",
"X  c #080E04",
"o  c #0B1306",
"O  c #0E1806",
"+  c #0D1408",
"@  c #0D180A",
"#  c #101B07",
"$  c #121D0A",
"%  c #14210A",
"&  c #18270C",
"*  c #1C2B0E",
"=  c #1C2C12",
"-  c #1D3116",
";  c #20310F",
":  c #223511",
">  c #263B13",
",  c #283E15",
"<  c #203719",
"1  c #253D1C",
"2  c #2C4417",
"3  c #2D441B",
"4  c #2E4818",
"5  c #314B1A",
"6  c #36521D",
"7  c #3A581F",
"8  c #2C4621",
"9  c #2E4C24",
"0  c #304A25",
"q  c #325126",
"w  c #3D5624",
"e  c #3E5D22",
"r  c #36552A",
"t  c #37582B",
"y  c #3A5E2D",
"u  c #3F6022",
"i  c #3C602F",
"p  c #436524",
"a  c #466A26",
"s  c #496E27",
"d  c #476829",
"f  c #496E28",
"g  c #4C7229",
"h  c #4F782B",
"j  c #50752F",
"k  c #527C2D",
"l  c #436A34",
"z  c #476F38",
"x  c #467137",
"c  c #477238",
"v  c #497539",
"b  c #4D7B3D",
"n  c #547D31",
"m  c #56812F",
"M  c #578330",
"N  c #598532",
"B  c #5D8C34",
"V  c #608F35",
"C  c #629336",
"Z  c #659639",
"A  c #669A39",
"S  c #699E3B",
"D  c #6DA33D",
"F  c #70A73E",
"G  c #72AA3F",
"H  c #538541",
"J  c #558943",
"K  c #598C46",
"L  c #5D944A",
"P  c #629C4E",
"I  c #659F50",
"U  c #6DA646",
"Y  c #6FA947",
"T  c #72A742",
"R  c #73AD40",
"E  c #75AF49",
"W  c #77B142",
"Q  c #79B544",
"!  c #7DBB46",
"~  c #66A251",
"^  c #68A452",
"/  c #6DAB56",
"(  c #73B65B",
")  c #75BA5D",
"_  c #78BE5F",
"`  c #79BF60",
"'  c #7CC462",
"]  c #7EC864",
"[  c #80BF47",
"{  c #80C047",
"}  c #83C449",
"|  c #82CD67",
" . c #83CF68",
".. c #87D56B",
"X. c #8CDD6F",
"o. c #8EE171",
"O. c #91E573",
"+. c #95EB76",
"@. c #97EF78",
"#. c #98EF78",
"$. c #9AF47A",
"%. c None",
/* pixels */
"%.%.%.%.%.%.%.%.%.%.%.%.%.%.%.%.%.%.%.%.%.%.%.%.%.%.%.%.%.%.%.%.%.%.%.%.%.%.%.%.%.%.%.%.%.%.%.%.%.%.%.%.%.%.%.%.%.%.%.%.%.%.%.%.",
"%.%.%.%.%.%.%.%.%.%.%.%.%.%.%.%.%.%.%.%.%.%.%.%.%.%.%.%.%.%.%.%.%.%.%.%.%.%.%.%.%.%.%.%.%.%.%.%.%.%.%.%.%.%.%.%.%.%.%.%.%.%.%.%.",
"%.%.%.%.%.%.%.%.%.%.%.%.%.%.%.%.%.%.%.%.%.%.%.%.%.%.%.%.%.%.%.%.%.%.%.%.%.%.%.%.%.%.%.%.%.%.%.%.%.%.%.%.%.%.%.%.%.%.%.%.%.%.%.%.",
"%.%.%.%.%.%.%.%.%.%.%.%.%.%.%.%.%.%.%.%.%.%.%.%.%.%.%.%.%.%.%.%.%.%.%.%.%.%.%.%.%.%.%.%.%.%.%.%.%.%.%.%.%.%.%.%.%.%.%.%.%.%.%.%.",
"%.%.%.%.%.%.%.%.%.%.%.%.%.%.%.%.%.%.%.%.%.%.%.%.%.%.%.%.%.%.%.%.%.%.%.%.%.%.%.%.%.%.%.%.%.%.%.%.%.%.%.%.%.%.%.%.%.%.%.%.%.%.%.%.",
"%.%.%.%.%.%.%.%.%.%.%.%.%.%.%.%.%.%.%.%.%.%.%.%.%.%.%.%.%.%.%.%.%.%.%.%.%.%.%.%.%.%.%.%.%.%.%.%.%.%.%.%.%.%.%.%.%.%.%.%.%.%.%.%.",
"%.%.%.%.%.%.%.%.%.%.%.%.%.%.%.%.%.%.%.%.%.%.%.%.%.%.%.%.%.%.%.%.%.%.%.%.%.%.%.%.%.%.%.%.%.%.%.%.%.%.%.%.%.%.%.%.%.%.%.%.%.%.%.%.",
"%.%.%.%.%.%.%.%.%.%.%.%.%.%.%.%.%.%.%.%.%.%.%.%.%.                          %.%.%.%.%.%.%.%.%.%.%.%.%.%.%.%.%.%.%.%.%.%.%.%.%.%.",
"%.%.%.%.%.%.%.%.%.%.%.%.%.%.%.%.%.%.%.%.%.%.          . # , s g p u e 2 o         %.%.%.%.%.%.%.%.%.%.%.%.%.%.%.%.%.%.%.%.%.%.%.",
"%.%.%.%.%.%.%.%.%.%.%.%.%.%.%.%.%.%.%.%.        5 B F ! } } } } { } } } { D a o       %.%.%.%.%.%.%.%.%.%.%.%.%.%.%.%.%.%.%.%.%.",
"%.%.%.%.%.%.%.%.%.%.%.%.%.%.%.%.%.%.%.      p G } } } } } } } } } } } } } } } ! m O     %.%.%.%.%.%.%.%.%.%.%.%.%.%.%.%.%.%.%.%.",
"%.%.%.%.%.%.%.%.%.%.%.%.%.%.%.%.%.%.    , D } } } } } } } } } } } } } } } } } } } Q a     %.%.%.%.%.%.%.%.%.%.%.%.%.%.%.%.%.%.%.",
"%.%.%.%.%.%.%.%.%.%.%.%.%.%.%.%.      a { } } } } } } } } } } } } } } } } } } } } } } Z X   %.%.%.%.%.%.%.%.%.%.%.%.%.%.%.%.%.%.",
"%.%.%.%.%.%.%.%.%.%.%.%.%.%.%.      g { } } } } } } } } } } } } } } } } } } } } } } } } D .   %.%.%.%.%.%.%.%.%.%.%.%.%.%.%.%.%.",
"%.%.%.%.%.%.%.%.%.%.%.%.%.%.%.    e ! } } } } } } } } } } } } } } } } } } } } } } } } } } C     %.%.%.%.%.%.%.%.%.%.%.%.%.%.%.%.",
"%.%.%.%.%.%.%.%.%.%.%.%.%.%.    2 F } } } } } } } } } } } } } } } } } } } } } } } } } } } } a   . %.%.%.%.%.%.%.%.%.%.%.%.%.%.%.",
"%.%.%.%.%.%.%.%.%.%.%.%.%.    . V ! } } } } } } } } } } } } } } } } } } } } } } } } } } } } G %   %.%.%.%.%.%.%.%.%.%.%.%.%.%.%.",
"%.%.%.%.%.%.%.%.%.%.%.%.%.    a F { } } } } } } } } } } } } } } } } } } } } } } } } } } { { ! N   . %.%.%.%.%.%.%.%.%.%.%.%.%.%.",
"%.%.%.%.%.%.%.%.%.%.%.%.    & C Q } } } } } } } } } } } } } } } } } } } } } } } ! } } } } { { ! %   %.%.%.%.%.%.%.%.%.%.%.%.%.%.",
"%.%.%.%.%.%.%.%.%.%.%.%.    p S { } } } } } } } } } } } } } } } } } } } { { { { } } ! } { } } { k   %.%.%.%.%.%.%.%.%.%.%.%.%.%.",
"%.%.%.%.%.%.%.%.%.%.%.%.    N F } } } } } } } } } } } } } } } } } } } S # $ a Q ! ! } } { S f G G .   %.%.%.%.%.%.%.%.%.%.%.%.%.",
"%.%.%.%.%.%.%.%.%.%.%.    2 S W } } } } } } } } } } } } } } } } } } T . . o + B } } } ! ! # + e { :   %.%.%.%.%.%.%.%.%.%.%.%.%.",
"%.%.%.%.%.%.%.%.%.%.%.    s S Q } } } } } } } } } } } } } } } } } { p     . O s ! } } } ! o . + W m   %.%.%.%.%.%.%.%.%.%.%.%.%.",
"%.%.%.%.%.%.%.%.%.%.%.    k S ! } } } } } } } } } } } } } } } } } R       . o 7 } } } ! [ a   X B A     %.%.%.%.%.%.%.%.%.%.%.%.",
"%.%.%.%.%.%.%.%.%.%.%.  . S S ! } } } } } } } } } } } } } } } { } k       . + e E E U U E B   . g Q X   %.%.%.%.%.%.%.%.%.%.%.%.",
"%.%.%.%.%.%.%.%.%.%.%.  o S S ! } } } } } } } } } } } } } } { } R X     o r z I ] .... .' L l 8 * ! %   %.%.%.%.%.%.%.%.%.%.%.%.",
"%.%.%.%.%.%.%.%.%.%.%.  & S S ! } } } } } } } } } } } } } { } { m     = l L ..$.$.$.$.$.$.$.X.K t T ,   %.%.%.%.%.%.%.%.%.%.%.%.",
"%.%.%.%.%.%.%.%.%.%.%.  > S S ! } } } } } } } } } } } } { } { { a   = c ^ o.$.$.$.o.) ( ` @.$.@.b 0 w   %.%.%.%.%.%.%.%.%.%.%.%.",
"%.%.%.%.%.%.%.%.%.%.    p S S ! } } } } } } } } } } } } } } } } k . t / X.$.$.` q         9 | $.+.t o   %.%.%.%.%.%.%.%.%.%.%.%.",
"%.%.%.%.%.%.%.%.%.%.    g S S ! } } } } } } } } } } } } } } } } F 8 K ..$.@.z               3 | $.`     %.%.%.%.%.%.%.%.%.%.%.%.",
"%.%.%.%.%.%.%.%.%.%.    h S S ! } } } } } } } } } } } } } } } ! j t ] @.$.c                   L O.$.-   %.%.%.%.%.%.%.%.%.%.%.%.",
"%.%.%.%.%.%.%.%.%.%.    B S S W } } } } } } } } } } } } } } } T + / O.$.K                     1 | $.P     %.%.%.%.%.%.%.%.%.%.%.",
"%.%.%.%.%.%.%.%.%.%.  & S S S G } } } } } } } } } } } } } } E d l | $.'                         ( @.)     %.%.%.%.%.%.%.%.%.%.%.",
"%.%.%.%.%.%.%.%.%.    a S S S D } } } } } } } } } } } } } } T = P o.+.<                         I +.'     %.%.%.%.%.%.%.%.%.%.%.",
"%.%.%.%.%.%.%.%.%.    B S S S S } } } } } } } } } } } } } [ A   ( +.(                           P +.'     %.%.%.%.%.%.%.%.%.%.%.",
"%.%.%.%.%.%.%.%.%.  > S S S S S [ } } } } } } } } } } } } [ N . ' #.K                           I +.'     %.%.%.%.%.%.%.%.%.%.%.",
"%.%.%.%.%.%.%.%.    g D S S S S R } } } } } } } } } } } } ! N   ` $.^         = ^ ] ..L .     % ' $.(     %.%.%.%.%.%.%.%.%.%.%.",
"%.%.%.%.%.%.%.%.  : A S S S S S F [ } } } } } } } } } } } [ Z   ^ o.O.l = H ` #.+.o.o.$...I I ' $.$.J     %.%.%.%.%.%.%.%.%.%.%.",
"%.%.%.%.%.%.%.    g S S S S S S S [ } } } } } } } } } } } { D = v ' O.$.$.@.o. .` y )  .X.o.+.#.O.( o   %.%.%.%.%.%.%.%.%.%.%.%.",
"%.%.%.%.%.%.%.    Z S S S S S S S W } } } } } } } } } } } } G j   K ` ]  .' I y .   % b L ^ / I J o     %.%.%.%.%.%.%.%.%.%.%.%.",
"%.%.%.%.%.%.%.  $ D S S S S S S S T [ } } } } } } } } } } } { D e   @ 8 r $   1 j n n w $     . +     %.%.%.%.%.%.%.%.%.%.%.%.%.",
"%.%.%.%.%.%.%.  > S S S S S S S S F [ } } } } } } } } } } } } ! U N d w d n Z S S S S S S S Z S 4   %.%.%.%.%.%.%.%.%.%.%.%.%.%.",
"%.%.%.%.%.%.%.  > S S S S S S S S S W } } } } } } } } } } } } } { Q R D D D D D S S F F G Q ! m     %.%.%.%.%.%.%.%.%.%.%.%.%.%.",
"%.%.%.%.%.%.%.  o S S S S S S S S S F [ } } } } } } } } } W } } } } } } } } { } } } } } } { D o   %.%.%.%.%.%.%.%.%.%.%.%.%.%.%.",
"%.%.%.%.%.%.%.    N S S S S S S S S S ! } } } } } } } } } 4 G } } } } } } } } } } } } } [ F 5     %.%.%.%.%.%.%.%.%.%.%.%.%.%.%.",
"%.%.%.%.%.%.%.%.  > Z S S S S S S S S F } } } } } } } } } k p } } } } } } } } } } } } Q D f     %.%.%.%.%.%.%.%.%.%.%.%.%.%.%.%.",
"%.%.%.%.%.%.%.%.    4 Z S S S S S S S S ! } } } } } ! ! } A % } } } } } } } } } } [ G S n .     %.%.%.%.%.%.%.%.%.%.%.%.%.%.%.%.",
"%.%.%.%.%.%.%.%.%.    # g S S C f Z S S F } } } { a X   C G   Q } } } } } } } ! R S S B o     %.%.%.%.%.%.%.%.%.%.%.%.%.%.%.%.%.",
"%.%.%.%.%.%.%.%.%.%.      : g B e > C S S R } } R     . B V   Z R Q W W R D D S A Z s X ; o   %.%.%.%.%.%.%.%.%.%.%.%.%.%.%.%.%.",
"%.%.%.%.%.%.%.%.%.%.%.%.        4 o 2 S S S R { C     . Z a   B S S S S D S A S B 4   & k .   %.%.%.%.%.%.%.%.%.%.%.%.%.%.%.%.%.",
"%.%.%.%.%.%.%.%.%.%.%.%.%.            k S S S D k   . . C $ o Z S S S S S S A s o   : V M     %.%.%.%.%.%.%.%.%.%.%.%.%.%.%.%.%.",
"%.%.%.%.%.%.%.%.%.%.%.%.%.%.%.%.      : A S S S f     ; k   , A S S S A m 4     % a Z S a   %.%.%.%.%.%.%.%.%.%.%.%.%.%.%.%.%.%.",
"%.%.%.%.%.%.%.%.%.%.%.%.%.%.%.%.%.%.    g S S S g   . s s   2 s g a :           u S S Z %   %.%.%.%.%.%.%.%.%.%.%.%.%.%.%.%.%.%.",
"%.%.%.%.%.%.%.%.%.%.%.%.%.%.%.%.%.%.%.  : A S S V o 6 C :                       O B Z 7     %.%.%.%.%.%.%.%.%.%.%.%.%.%.%.%.%.%.",
"%.%.%.%.%.%.%.%.%.%.%.%.%.%.%.%.%.%.%.    e A S S S Z 5           %.%.%.%.%.%.    # :     %.%.%.%.%.%.%.%.%.%.%.%.%.%.%.%.%.%.%.",
"%.%.%.%.%.%.%.%.%.%.%.%.%.%.%.%.%.%.%.%.    , g g e %     %.%.%.%.%.%.%.%.%.%.%.        %.%.%.%.%.%.%.%.%.%.%.%.%.%.%.%.%.%.%.%.",
"%.%.%.%.%.%.%.%.%.%.%.%.%.%.%.%.%.%.%.%.%.              %.%.%.%.%.%.%.%.%.%.%.%.%.%.%.%.%.%.%.%.%.%.%.%.%.%.%.%.%.%.%.%.%.%.%.%.",
"%.%.%.%.%.%.%.%.%.%.%.%.%.%.%.%.%.%.%.%.%.%.        %.%.%.%.%.%.%.%.%.%.%.%.%.%.%.%.%.%.%.%.%.%.%.%.%.%.%.%.%.%.%.%.%.%.%.%.%.%.",
"%.%.%.%.%.%.%.%.%.%.%.%.%.%.%.%.%.%.%.%.%.%.%.%.%.%.%.%.%.%.%.%.%.%.%.%.%.%.%.%.%.%.%.%.%.%.%.%.%.%.%.%.%.%.%.%.%.%.%.%.%.%.%.%.",
"%.%.%.%.%.%.%.%.%.%.%.%.%.%.%.%.%.%.%.%.%.%.%.%.%.%.%.%.%.%.%.%.%.%.%.%.%.%.%.%.%.%.%.%.%.%.%.%.%.%.%.%.%.%.%.%.%.%.%.%.%.%.%.%.",
"%.%.%.%.%.%.%.%.%.%.%.%.%.%.%.%.%.%.%.%.%.%.%.%.%.%.%.%.%.%.%.%.%.%.%.%.%.%.%.%.%.%.%.%.%.%.%.%.%.%.%.%.%.%.%.%.%.%.%.%.%.%.%.%.",
"%.%.%.%.%.%.%.%.%.%.%.%.%.%.%.%.%.%.%.%.%.%.%.%.%.%.%.%.%.%.%.%.%.%.%.%.%.%.%.%.%.%.%.%.%.%.%.%.%.%.%.%.%.%.%.%.%.%.%.%.%.%.%.%.",
"%.%.%.%.%.%.%.%.%.%.%.%.%.%.%.%.%.%.%.%.%.%.%.%.%.%.%.%.%.%.%.%.%.%.%.%.%.%.%.%.%.%.%.%.%.%.%.%.%.%.%.%.%.%.%.%.%.%.%.%.%.%.%.%.",
"%.%.%.%.%.%.%.%.%.%.%.%.%.%.%.%.%.%.%.%.%.%.%.%.%.%.%.%.%.%.%.%.%.%.%.%.%.%.%.%.%.%.%.%.%.%.%.%.%.%.%.%.%.%.%.%.%.%.%.%.%.%.%.%."
};
