/* XPM */
static char *result[] = {
/* columns rows colors chars-per-pixel */
"64 64 225 2 ",
"   c #010100",
".  c #060B04",
"X  c #0A0E04",
"o  c #0B0B0B",
"O  c #070707",
"+  c #0C1405",
"@  c #0E1809",
"#  c #121A08",
"$  c #0D1118",
"%  c #171917",
"&  c #020812",
"*  c #1D2C0B",
"=  c #15230B",
"-  c #1A2812",
";  c #1E3115",
":  c #1F320F",
">  c #26380D",
",  c #253915",
"<  c #3D3B18",
"1  c #383415",
"2  c #28260E",
"3  c #08162C",
"4  c #222222",
"5  c #2D2D2D",
"6  c #3C3C3B",
"7  c #353434",
"8  c #26333A",
"9  c #1B232D",
"0  c #443D19",
"q  c #49380D",
"w  c #2C430E",
"e  c #30490F",
"r  c #2B431A",
"t  c #2D4415",
"y  c #3E431A",
"u  c #354D18",
"i  c #3E5E14",
"p  c #385418",
"a  c #3F6014",
"s  c #2E4922",
"d  c #365027",
"f  c #3D632B",
"g  c #47471C",
"h  c #594816",
"j  c #475A1C",
"k  c #6A561B",
"l  c #7C5E19",
"z  c #416115",
"x  c #4A6C1B",
"c  c #48641C",
"v  c #4E731E",
"b  c #51751F",
"n  c #4E5325",
"m  c #426324",
"M  c #486928",
"N  c #506B20",
"B  c #4D7329",
"V  c #537423",
"C  c #557B23",
"Z  c #597D24",
"A  c #567A2D",
"S  c #446B33",
"D  c #4B7637",
"F  c #537B36",
"G  c #7C7530",
"H  c #7F7932",
"J  c #716A2C",
"K  c #6D5F22",
"L  c #072349",
"P  c #293646",
"I  c #323F4D",
"U  c #103A73",
"Y  c #39506D",
"T  c #354553",
"R  c #454444",
"E  c #535353",
"W  c #5B5B5B",
"Q  c #465A71",
"!  c #536B7D",
"~  c #676766",
"^  c #777777",
"/  c #605E5D",
"(  c #8B6719",
")  c #956D1A",
"_  c #9E7017",
"`  c #A77719",
"'  c #9D7B21",
"]  c #857C33",
"[  c #896E21",
"{  c #A07F25",
"}  c #5B8226",
"|  c #5D8529",
" . c #5E892B",
".. c #568235",
"X. c #5C8A36",
"o. c #5C8B3B",
"O. c #558339",
"+. c #5F903C",
"@. c #628D2B",
"#. c #66922D",
"$. c #69962E",
"%. c #6C9A2E",
"&. c #618B36",
"*. c #6C9B33",
"=. c #66993C",
"-. c #679938",
";. c #6FA136",
":. c #6BA03C",
">. c #71A539",
",. c #73A83B",
"<. c #5A8C42",
"1. c #568541",
"2. c #5D9245",
"3. c #5C9249",
"4. c #629542",
"5. c #659A44",
"6. c #659A48",
"7. c #69945E",
"8. c #6DA343",
"9. c #6AA44C",
"0. c #73AC45",
"q. c #72AB49",
"w. c #79B445",
"e. c #76B24B",
"r. c #7DBB4B",
"t. c #78B347",
"y. c #74B353",
"u. c #79B958",
"i. c #6CAA53",
"p. c #7BBF61",
"a. c #7EC35A",
"s. c #7DC362",
"d. c #B7851E",
"f. c #948B3A",
"g. c #9B913D",
"h. c #918434",
"j. c #B78A22",
"k. c #BB932B",
"l. c #BC9327",
"z. c #A59236",
"x. c #C59C2C",
"c. c #C7A537",
"v. c #A69C42",
"b. c #B6AA47",
"n. c #BCB14B",
"m. c #C1B64D",
"M. c #CCB748",
"N. c #D3BC49",
"B. c #C9BD51",
"V. c #CCAF40",
"C. c #82C453",
"Z. c #85CC5B",
"A. c #83C959",
"S. c #8AD35E",
"D. c #82C34C",
"F. c #83CC64",
"G. c #8AD562",
"H. c #8CDA6C",
"J. c #8AD666",
"K. c #90DE6A",
"L. c #90DE71",
"P. c #93E46D",
"I. c #95E86E",
"U. c #96EB73",
"Y. c #95E974",
"T. c #9BF57B",
"R. c #9EFA7E",
"E. c #99F077",
"W. c #8FE171",
"Q. c #A0FA7F",
"!. c #D9C44E",
"~. c #D6C14D",
"^. c #CEC253",
"/. c #D5C956",
"(. c #DBCB54",
"). c #D6C754",
"_. c #DDD15A",
"`. c #E2D45B",
"'. c #E6D95D",
"]. c #E7DA5D",
"[. c #E0CD53",
"{. c #13458B",
"}. c #144992",
"|. c #1855A9",
" X c #1A5CB8",
".X c #5C7592",
"XX c #576F8B",
"oX c #607997",
"OX c #4675BD",
"+X c #1D66CC",
"@X c #1C63C5",
"#X c #1F6DD9",
"$X c #1F71E3",
"%X c #2175EB",
"&X c #2172E2",
"*X c #217AF4",
"=X c #6B87A7",
"-X c #7695B9",
";X c #6E90B4",
":X c #3784F1",
">X c #7A9CC2",
",X c #5391EE",
"<X c #78A7E4",
"1X c #77ABF3",
"2X c #598EDE",
"3X c #8A8A8A",
"4X c #959594",
"5X c #9D9D9D",
"6X c #B9B9B9",
"7X c #A5A5A5",
"8X c #A3FB81",
"9X c #C9E6BF",
"0X c #83A6CE",
"qX c #97BFEB",
"wX c #9DC9FB",
"eX c #C6C6C6",
"rX c #D5D5D4",
"tX c #DEDEDD",
"yX c #E4E4E4",
"uX c gray93",
"iX c #F4F4F4",
"pX c #FEFEFE",
"aX c #F8F8F7",
"sX c #E7F1E2",
"dX c None",
/* pixels */
"dXdXdXdXdXdXdXdXdXdXdXdXdXdXdXdXdXdXdXdXdXdXdXdXdXdXdXdXdXdXdXdXdXdXdXdXdXdXdXdXdXdXdXdXdXdXdXdXdXdXdXdXdXdXdXdXdXdXdXdXdXdXdXdX",
"dXdXdXdXdXdXdXdXdXdXdXdXdXdXdXdXdXdXdXdXdXdXdXdXdXdXdXdXdXdXdXdXdXdXdXdXdXdXdXdXdXdXdXdXdXdXdXdXdXdXdXdXdXdXdXdXdXdXdXdXdXdXdXdX",
"dXdXdXdXdXdXdXdXdXdXdXdXdXdXdXdXdXdXdXdXdXdXdXdXdXdXdXdXdXdXdXdXdXdXdXdXdXdXdXdXdXdXdXdXdXdXdXdXdXdXdXdXdXdXdXdXdXdXdXdXdXdXdXdX",
"dXdXdXdXdXdXdXdXdXdXdXdXdXdXdXdXdXdXdXdXdXdXdXdXdXdXdXdXdXdXdXdXdXdXdXdXdXdXdXdXdXdXdXdXdXdXdXdXdXdXdXdXdXdXdXdXdXdXdXdXdXdXdXdX",
"dXdXdXdXdXdXdXdXdXdXdXdXdXdXdXdXdXdXdXdXdXdXdXdXdXdXdXdXdXdXdXdXdXdXdXdXdXdXdXdXdXdXdXdXdXdXdXdXdXdXdXdXdXdXdXdXdXdXdXdXdXdXdXdX",
"dXdXdXdXdXdXdXdXdXdXdXdXdXdXdXdXdXdXdXdXdXdXdXdXdXdXdXdXdXdXdXdXdXdXdXdXdXdXdXdXdXdXdXdXdXdXdXdXdXdXdXdXdXdXdXdXdXdXdXdXdXdXdXdX",
"dXdXdXdXdXdXdXdXdXdXdXdXdXdXdXdXdXdXdXdXdXdXdXdXdXdXdXdXdXdXdXdXdXdXdXdXdXdXdXdXdXdXdXdXdXdXdXdXdXdXdXdXdXdXdXdXdXdXdXdXdXdXdXdX",
"dXdXdXdXdXdXdXdXdXdXdXdXdXdXdXdXdXdXdX  X ; ; =         dXdXdXdX    . . O         dXdXdXdXdXdXdXdXdXdXdXdXdXdXdXdXdXdXdXdXdXdXdX",
"dXdXdXdXdXdXdXdXdXdXdXdXdXdXdXdXdX  = s S 6.p.L.W.9.-           = s 3.u.W.H.s.D .     dXdXdXdXdXdXdXdXdXdXdXdXdXdXdXdXdXdXdXdXdX",
"dXdXdXdXdXdXdXdXdXdXdXdXdXdXdXdX  f H.P.P.P.G.s.p.J.A.F +   O A.P.Y.W.F.u.s.Y.8XL.S     dXdXdXdXdXdXdXdXdXdXdXdXdXdXdXdXdXdXdXdX",
"dXdXdXdXdXdXdXdXdXdXdXdXdXdXdX  X D 3.3.<.F X.8.H.9.5...,   , S D D B  .0.P.G.W.K.J.S     dXdXdXdXdXdXdXdXdXdXdXdXdXdXdXdXdXdXdX",
"dXdXdXdXdXdXdXdXdXdXdXdXdXdXdX  4.e.9.8.q.Z.G.F.&.5.O.m # S C.C.u.a.G.J.F.8.r.G.C.r.C.m     dXdXdXdXdXdXdXdXdXdXdXdXdXdXdXdXdXdX",
"dXdXdXdXdXdXdXdXdXdXdXdXdX    % E ~ W 6 o   t } 9.o.M ,   % I 7 4   # u @.A.r.0.r.w.r.w.*   dXdXdXdXdXdXdXdXdXdXdXdXdXdXdXdXdXdX",
"dXdXdXdXdXdXdXdXdXdXdXdX    7XuXeXeXiXpXuXeX^   p D : ~ tXiXyXpXpXyXeX~   c r.w.w.w.0.,.|     dXdXdXdXdXdXdXdXdXdXdXdXdXdXdXdXdX",
"dXdXdXdXdXdXdXdXdXdXdXdX  7XyX5     5 yXpXpXpXeX4 @ ~ uX4Xo   R tXpXpXpXrXR u 0.0.,.>.*.*.*   dXdXdXdXdXdXdXdXdXdXdXdXdXdXdXdXdX",
"dXdXdXdXdXdXdXdXdXdXdX  5 aXW         W pXpXpXeX7X  rX6X        6 aXpXpXpXuX~ = @.;.*.$.#.V     dXdXdXdXdXdXdXdXdXdXdXdXdXdXdXdX",
"dXdXdXdXdXdXdXdXdXdXdX  ^ aXo         o aXpXaX6X4X% pX~           rXpXpXpXpXaX4X% r Z #.#.@..   dXdXdXdXdXdXdXdXdXdXdXdXdXdXdXdX",
"dXdXdXdXdXdXdXdXdXdXdX  ^ pX7   4 6   6 pXpXiX6XE 5 pX^   o 5 O   rXpXpXpXpXpXpXsXu.$.#.#.#.>   dXdXdXdXdXdXdXdXdXdXdXdXdXdXdXdX",
"dXdXdXdXdXdXdXdXdXdXdX  7 aX6X  6 E O eXpXpXyXE <.# tXrX  7 / 4 ~ pXpXpXpXpXaX9XC.@.#.#.$.*.V     dXdXdXdXdXdXdXdXdXdXdXdXdXdXdX",
"dXdXdXdXdXdXdXdXdXdXdX  O 4XaXrX4X4XrXpXpXuXR s.Q.8.^ sXeXE 7 4XuXpXpXpXpX6X7.A.$.$.>.w.w.w.D.M     dXdXdXdXdXdXdXdXdXdXdXdXdXdX",
"dXdXdXdXdXdXdXdXdXdXdXdX    4XtXiXuXaXaXyXW u.8XT.T.s =XyXuXiXaXpXaXyX6XR i.Z.#.>.w.D.C.K.P.I.G.r   dXdXdXdXdXdXdXdXdXdXdXdXdXdX",
"dXdXdXdXdXdXdXdXdXdXdXdX  , <.d ^ 3X^ / 4 1.8XT.T.T.W.@ 6 3X5X4X3XE $ D F.t.*.*.w.C.P.T.E.E.E.I.u.    dXdXdXdXdXdXdXdXdXdXdXdXdX",
"dXdXdXdXdXdXdXdXdXdXdXdXdX* ;.r.9.3.<.; s T.T.T.T.T.8Xs.- <.2.2.y.a.G.r.%.*.| t.Z.E.T.E.E.U.I.L.S.M   dXdXdXdXdXdXdXdXdXdXdXdXdX",
"dXdXdXdXdXdXdXdXdXdXdXdXdXo #.%.%.;.#.@ p.T.T.T.T.T.8XT.H.r  .>.,.%.%.%.| M *.C.U.E.U.U.U.I.K.K.S.:.    dXdXdXdXdXdXdXdXdXdXdXdX",
"dXdXdXdXdXdXdXdXdXdX      X g c c u m s R.T.T.T.T.T.T.T.T.W.3.r , > , i M A &.q.F.Y.L.L.K.K.S.A.D.r.+   dXdXdXdXdXdXdXdXdXdXdXdX",
"dXdXdXdXdXdXdXdXdX    G m.m.G y } 0.a.P.T.T.T.T.T.T.T.T.T.T.T.Z.:.-.V y 0 ] g.K 0 F G.G.S.C.D.D.w.D.r   dXdXdXdXdXdXdXdXdXdXdXdX",
"dXdXdXdXdXdXdXdXdX  ] ].`.`.].B.J g A F.Y.R.R.R.T.8X8X8X8XT.L.y.M g f.m._.`.`.'.v.q =.t.D.D.,.,.,.,.m   dXdXdXdXdXdXdXdXdXdXdXdX",
"dXdXdXdXdXdXdXdXdX  ^.!.n.`.`._.'./.b.H n n F 5.6.6.4.1.n g K g.m._.'.`.n._.`.`.].J A D.,.,.>.>.>.,.B   dXdXdXdXdXdXdXdXdXdXdXdX",
"dXdXdXdXdXdXdXdXdX  ^.`.] g b.N.!.(.'.].`./.^.n.n.n.m.B.^._.].'.`.`.[./.o ] '._.'.h.M D.,.>.>.>.;.;.N   dXdXdXdXdXdXdXdXdXdXdXdX",
"dXdXdXdXdXdXdXdXdX  z.`.].m.K h ' l.x.c.M.~.(.(.(././.N.M.c.c.c.l.' k o 1 2 '.`.`.n A >.*.*.*.*.*.*.p   dXdXdXdXdXdXdXdXdXdXdXdX",
"dXdXdXdXdXdXdXdXdX  # B.`._.].^.f.1 h ( ) ` d.` ` ` ` _ _ ( l q 0 h.m./.'./.`.`.g.< -.*.*.#.#.#.#.$.#   dXdXdXdXdXdXdXdXdXdXdXdX",
"dXdXdXdXdXdXdXdXdXdX  2 b.!.N.N._.'./.n.b.g.h.G G G ] g.v.b.B./.].(.!.!.`.'./.G < | $.#.#.#.@.#.@.C     dXdXdXdXdXdXdXdXdXdXdXdX",
"dXdXdXdXdXdXdXdXdXdXdXO # h h.l.x.x.V.N./.`.'.'.].].]._.`.!.M.c.x.x.x.N.n.] 1 j @.@.@.@.@.@.@.@.@.>   dXdXdXdXdXdXdXdXdXdXdXdXdX",
"dXdXdXdXdXdXdXdXdXdXdX    j g < l { j.d.d.j.k.k.k.k.k.k.d.d.j.j.h.( k 0 < c V @.} @.@.@.@.@.@.@.z     dXdXdXdXdXdXdXdXdXdXdXdXdX",
"dXdXdXdXdXdXdXdXdXdXdXdX  p C N M 0 0 0 k l ( ) ' ) ) ( l h 0 1 g j N V } Z Z Z } | @.| }  .@.b O   dXdXdXdXdXdXdXdXdXdXdXdXdXdX",
"dXdXdXdXdXdXdXdXdXdXdXdX  O x x N Z Z N c n j y y y g g j N b Z Z } Z } } Z C @.} C C C } | v .   dXdXdXdXdXdXdXdXdXdXdXdXdXdXdX",
"dXdXdXdXdXdXdXdXdXdXdXdXdX  + p z z x C } | } | } } | } } } } } } } } } Z Z b v v v b C b u     dXdXdXdXdXdXdXdXdXdXdXdXdXdXdXdX",
"dXdXdXdXdXdXdXdXdXdXdXdXdXdX    > a i i z v C C } } } } } } } Z } b v x z z z z x b x w       dXdXdXdXdXdXdXdXdXdXdXdXdXdXdXdXdX",
"dXdXdXdXdXdXdXdXdXdXdXdXdXdXdX    + e i a a a a a z a a a z a a a i i i z z z z p *       dXdXdXdXdXdXdXdXdXdXdXdXdXdXdXdXdXdXdX",
"dXdXdXdXdXdXdXdXdXdXdXdXdXdXdXdXdX    O * e p z z z a a a a a j a a j i p e > X       dXdXdXdXdXdXdXdXdXdXdXdXdXdXdXdXdXdXdXdXdX",
"dXdXdXdXdXdXdXdXdXdXdXdXdXdXdXdXdXdXdX        X # * > w e e w w > * + # X.e.e....   dXdXdXdXdXdXdXdXdXdXdXdXdXdXdXdXdXdXdXdXdXdX",
"dXdXdXdXdXdXdXdXdXdXdXdXdXdXdXdXdXdXdXdXdX  @ p # L Y I     O P P Y ! X.r.e.0.8.r   dXdXdXdXdXdXdXdXdXdXdXdXdXdXdXdXdXdXdXdXdXdX",
"dXdXdXdXdXdXdXdXdXdXdXdXdXdXdXdXdXdXdXdXdX  r X.r }.2X-X=XoX=X;XOX<X0X:.8.q.8.8.u   dXdXdXdXdXdXdXdXdXdXdXdXdXdXdXdXdXdXdXdXdXdX",
"dXdXdXdXdXdXdXdXdXdXdXdXdXdXdXdXdXdXdXdX    r A ; }.*X,X<X<X<X,X:X1X0Xm =.8.8.=.F +   dXdXdXdXdXdXdXdXdXdXdXdXdXdXdXdXdXdXdXdXdX",
"dXdXdXdXdXdXdXdXdXdXdXdXdXdXdXdXdXdXdXdX  # A B @  X*X*X*X*X*X*X*X1XqX- o.q.r.0.q.B     dXdXdXdXdXdXdXdXdXdXdXdXdXdXdXdXdXdXdXdX",
"dXdXdXdXdXdXdXdXdXdXdXdXdXdXdXdXdXdXdX    r X.B 3 +X*X*X*X*X*X*X*X:XwX=X..e.e.0.q...r     dXdXdXdXdXdXdXdXdXdXdXdXdXdXdXdXdXdXdX",
"dXdXdXdXdXdXdXdXdXdXdXdXdXdXdXdXdXdXdX  : ;.:.M {.#X*X*X*X*X*X*X*X*X,X;Xr X.8.0.0.0.0.o.=   dXdXdXdXdXdXdXdXdXdXdXdXdXdXdXdXdXdX",
"dXdXdXdXdXdXdXdXdXdXdXdXdXdXdXdXdXdX  . -.a.,.B }.+X$X*X*X*X*X*X*X*X*X$X@ S 0.e.0.q.q.5.4.    dXdXdXdXdXdXdXdXdXdXdXdXdXdXdXdXdX",
"dXdXdXdXdXdXdXdXdXdXdXdXdXdXdXdXdXdX  m -.:.=.,  X X X#X$X%X%X%X$X$X$X$X3 ..e.0.0.i.y.i.3.+   dXdXdXdXdXdXdXdXdXdXdXdXdXdXdXdXdX",
"dXdXdXdXdXdXdXdXdXdXdXdXdXdXdXdXdXdX  X.X.X.=.&  X+X X|.|.|. X@X@X+X@X@X& &.0.5.e.u.<.s.F +   dXdXdXdXdXdXdXdXdXdXdXdXdXdXdXdXdX",
"dXdXdXdXdXdXdXdXdXdXdXdXdXdXdXdXdX    6.O.B =.= L }. X+X+X+X+X+X+X@X}.9   o.5.* O.a.3.p.S   dXdXdXdXdXdXdXdXdXdXdXdXdXdXdXdXdXdX",
"dXdXdXdXdXdXdXdXdXdXdXdXdXdXdXdXdXdX  1.<.; p @   $ L U {.{.{.U L P .X-X9 S 8.* d s.1.6.=   dXdXdXdXdXdXdXdXdXdXdXdXdXdXdXdXdXdX",
"dXdXdXdXdXdXdXdXdXdXdXdXdXdXdXdXdXdX  ; D -       ;X.X8 O     O XX>X>X>X.X  +     D r .   dXdXdXdXdXdXdXdXdXdXdXdXdXdXdXdXdXdXdX",
"dXdXdXdXdXdXdXdXdXdXdXdXdXdXdXdXdXdXdX          $ XX=XXXO     ! >X=X.XXXQ $             dXdXdXdXdXdXdXdXdXdXdXdXdXdXdXdXdXdXdXdX",
"dXdXdXdXdXdXdXdXdXdXdXdXdXdXdXdXdXdXdXdX    . <.O.5.+.8 &     Q T 4.3.u.s.i.s   dXdXdXdXdXdXdXdXdXdXdXdXdXdXdXdXdXdXdXdXdXdXdXdX",
"dXdXdXdXdXdXdXdXdXdXdXdXdXdXdXdXdXdXdXdXdX  O.a.6.S.Z.q.%     - e.Z.Z.3.H.y.y.  dXdXdXdXdXdXdXdXdXdXdXdXdXdXdXdXdXdXdXdXdXdXdXdX",
"dXdXdXdXdXdXdXdXdXdXdXdXdXdXdXdXdXdXdXdXdX  f O.F 5.4.+.,     - O.4.9.D i.F o.  dXdXdXdXdXdXdXdXdXdXdXdXdXdXdXdXdXdXdXdXdXdXdXdX",
"dXdXdXdXdXdXdXdXdXdXdXdXdXdXdXdXdXdXdXdXdXdX            dXdXdXdXO       O   O   dXdXdXdXdXdXdXdXdXdXdXdXdXdXdXdXdXdXdXdXdXdXdXdX",
"dXdXdXdXdXdXdXdXdXdXdXdXdXdXdXdXdXdXdXdXdXdXdXdXdXdXdXdXdXdXdXdXdXdXdXdXdXdXdXdXdXdXdXdXdXdXdXdXdXdXdXdXdXdXdXdXdXdXdXdXdXdXdXdX",
"dXdXdXdXdXdXdXdXdXdXdXdXdXdXdXdXdXdXdXdXdXdXdXdXdXdXdXdXdXdXdXdXdXdXdXdXdXdXdXdXdXdXdXdXdXdXdXdXdXdXdXdXdXdXdXdXdXdXdXdXdXdXdXdX",
"dXdXdXdXdXdXdXdXdXdXdXdXdXdXdXdXdXdXdXdXdXdXdXdXdXdXdXdXdXdXdXdXdXdXdXdXdXdXdXdXdXdXdXdXdXdXdXdXdXdXdXdXdXdXdXdXdXdXdXdXdXdXdXdX",
"dXdXdXdXdXdXdXdXdXdXdXdXdXdXdXdXdXdXdXdXdXdXdXdXdXdXdXdXdXdXdXdXdXdXdXdXdXdXdXdXdXdXdXdXdXdXdXdXdXdXdXdXdXdXdXdXdXdXdXdXdXdXdXdX",
"dXdXdXdXdXdXdXdXdXdXdXdXdXdXdXdXdXdXdXdXdXdXdXdXdXdXdXdXdXdXdXdXdXdXdXdXdXdXdXdXdXdXdXdXdXdXdXdXdXdXdXdXdXdXdXdXdXdXdXdXdXdXdXdX",
"dXdXdXdXdXdXdXdXdXdXdXdXdXdXdXdXdXdXdXdXdXdXdXdXdXdXdXdXdXdXdXdXdXdXdXdXdXdXdXdXdXdXdXdXdXdXdXdXdXdXdXdXdXdXdXdXdXdXdXdXdXdXdXdX"
};
