/* XPM */
static char *result[] = {
/* columns rows colors chars-per-pixel */
"64 64 228 2 ",
"   c #010100",
".  c #060C04",
"X  c #0A0E04",
"o  c #0B0B0B",
"O  c #070707",
"+  c #0C1405",
"@  c #0C1509",
"#  c #121A08",
"$  c #0C151A",
"%  c #171917",
"&  c #1D2C0B",
"*  c #16230B",
"=  c #182712",
"-  c #1E3115",
";  c #1F320F",
":  c #26380D",
">  c #253915",
",  c #3D3B18",
"<  c #383415",
"1  c #28260E",
"2  c #19282C",
"3  c #2D2D2D",
"4  c #232323",
"5  c #383837",
"6  c #273137",
"7  c #061731",
"8  c #443D19",
"9  c #49380D",
"0  c #2C430E",
"q  c #30490F",
"w  c #2E4413",
"e  c #29421B",
"r  c #3E431A",
"t  c #344D18",
"y  c #3E5E14",
"u  c #395518",
"i  c #3F6014",
"p  c #3A5922",
"a  c #324B29",
"s  c #3D632B",
"d  c #47471C",
"f  c #594816",
"g  c #475A1C",
"h  c #6A561B",
"j  c #7C5E19",
"k  c #416115",
"l  c #4A6C1B",
"z  c #48641C",
"x  c #4E731E",
"c  c #51751F",
"v  c #4E5325",
"b  c #426324",
"n  c #486927",
"m  c #506B20",
"M  c #4D7228",
"N  c #537423",
"B  c #557B23",
"V  c #597D24",
"C  c #58792C",
"Z  c #436833",
"A  c #4B7637",
"S  c #517B33",
"D  c #537B39",
"F  c #7C7530",
"G  c #7F7932",
"H  c #716A2C",
"J  c #6D5F22",
"K  c #0A2447",
"L  c #16304D",
"P  c #293646",
"I  c #323F4D",
"U  c #0F366C",
"Y  c #314553",
"T  c #3D526E",
"R  c #194072",
"E  c #454545",
"W  c #535353",
"Q  c #5B5B5B",
"!  c #465A71",
"~  c #4D6675",
"^  c #686868",
"/  c #737473",
"(  c #7C7C7C",
")  c #605E5D",
"_  c #8B6719",
"`  c #956D1A",
"'  c #9E7017",
"]  c #A77719",
"[  c #9D7B21",
"{  c #857C33",
"}  c #896E21",
"|  c #A07F25",
" . c #5B8226",
".. c #5D8529",
"X. c #5D862A",
"o. c #5B8B3C",
"O. c #588537",
"+. c #5F903C",
"@. c #628D2B",
"#. c #66922D",
"$. c #69962E",
"%. c #6C9A2E",
"&. c #618B37",
"*. c #6C9B32",
"=. c #669838",
"-. c #6FA136",
";. c #71A539",
":. c #73A83B",
">. c #588842",
",. c #5C9147",
"<. c #629542",
"1. c #649A44",
"2. c #659A49",
"3. c #69945E",
"4. c #6DA343",
"5. c #6BA44B",
"6. c #67A34E",
"7. c #73AC45",
"8. c #72AA49",
"9. c #79B445",
"0. c #7DBB4B",
"q. c #78B348",
"w. c #6AA652",
"e. c #74B353",
"r. c #78B959",
"t. c #6FB156",
"y. c #7BBE61",
"u. c #7EC35A",
"i. c #7DC362",
"p. c #B7851E",
"a. c #8D8538",
"s. c #948B3A",
"d. c #9B913D",
"f. c #9C8128",
"g. c #B78A22",
"h. c #BB932B",
"j. c #BC9327",
"k. c #A59236",
"l. c #C59C2C",
"z. c #C7A537",
"x. c #A69C42",
"c. c #B6AA47",
"v. c #BCB14B",
"b. c #C1B64D",
"n. c #CCB748",
"m. c #D3BC49",
"M. c #C9BD51",
"N. c #CCAF40",
"B. c #82C453",
"V. c #85CC5B",
"C. c #83C959",
"Z. c #89D35E",
"A. c #80C14F",
"S. c #82CB64",
"D. c #8AD562",
"F. c #8DDB6D",
"G. c #8AD666",
"H. c #90DE6A",
"J. c #90DE71",
"K. c #93E46D",
"L. c #95E86E",
"P. c #96EB73",
"I. c #95E975",
"U. c #9BF57B",
"Y. c #9EF97E",
"T. c #99F077",
"R. c #D9C44E",
"E. c #D6C14D",
"W. c #CEC253",
"Q. c #D5C956",
"!. c #DBCB54",
"~. c #D6C754",
"^. c #DDD15A",
"/. c #E2D45B",
"(. c #E6D95D",
"). c #E7DA5D",
"_. c #E0CD53",
"`. c #144589",
"'. c #184C95",
"]. c #1754A7",
"[. c #195BB6",
"{. c #235DAB",
"}. c #3564AE",
"|. c #566E8A",
" X c #5C7592",
".X c #55728F",
"XX c #607997",
"oX c #4977BF",
"OX c #1C63C5",
"+X c #1C66CC",
"@X c #1E68CF",
"#X c #1E6BD6",
"$X c #2175EA",
"%X c #2174E7",
"&X c #217AF4",
"*X c #2C7EF3",
"=X c #1F72E3",
"-X c #6B87A7",
";X c #7392B6",
":X c #63829B",
">X c #3B83F1",
",X c #5283D0",
"<X c #7A9CC2",
"1X c #6691CF",
"2X c #5190F2",
"3X c #669AEB",
"4X c #77A7E4",
"5X c #6EA3EC",
"6X c #7FA9DD",
"7X c #8B8B8B",
"8X c #959594",
"9X c #9D9D9D",
"0X c #B9B9B9",
"qX c #A5A5A5",
"wX c #A3FB81",
"eX c #C9E6BF",
"rX c #82AEE9",
"tX c #C3C3C3",
"yX c #CBCBCB",
"uX c #D4D4D4",
"iX c #DEDEDD",
"pX c #E4E4E3",
"aX c gray93",
"sX c #F4F4F4",
"dX c #FEFEFE",
"fX c #F8F8F7",
"gX c #E7F1E2",
"hX c None",
/* pixels */
"hXhXhXhXhXhXhXhXhXhXhXhXhXhXhXhXhXhXhXhXhXhXhXhXhXhXhXhXhXhXhXhXhXhXhXhXhXhXhXhXhXhXhXhXhXhXhXhXhXhXhXhXhXhXhXhXhXhXhXhXhXhXhXhX",
"hXhXhXhXhXhXhXhXhXhXhXhXhXhXhXhXhXhXhXhXhXhXhXhXhXhXhXhXhXhXhXhXhXhXhXhXhXhXhXhXhXhXhXhXhXhXhXhXhXhXhXhXhXhXhXhXhXhXhXhXhXhXhXhX",
"hXhXhXhXhXhXhXhXhXhXhXhXhXhXhXhXhXhXhXhXhXhXhXhXhXhXhXhXhXhXhXhXhXhXhXhXhXhXhXhXhXhXhXhXhXhXhXhXhXhXhXhXhXhXhXhXhXhXhXhXhXhXhXhX",
"hXhXhXhXhXhXhXhXhXhXhXhXhXhXhXhXhXhXhXhXhXhXhXhXhXhXhXhXhXhXhXhXhXhXhXhXhXhXhXhXhXhXhXhXhXhXhXhXhXhXhXhXhXhXhXhXhXhXhXhXhXhXhXhX",
"hXhXhXhXhXhXhXhXhXhXhXhXhXhXhXhXhXhXhXhXhXhXhXhXhXhXhXhXhXhXhXhXhXhXhXhXhXhXhXhXhXhXhXhXhXhXhXhXhXhXhXhXhXhXhXhXhXhXhXhXhXhXhXhX",
"hXhXhXhXhXhXhXhXhXhXhXhXhXhXhXhXhXhXhXhXhXhXhXhXhXhXhXhXhXhXhXhXhXhXhXhXhXhXhXhXhXhXhXhXhXhXhXhXhXhXhXhXhXhXhXhXhXhXhXhXhXhXhXhX",
"hXhXhXhXhXhXhXhXhXhXhXhXhXhXhXhXhXhXhXhXhXhXhXhXhXhXhXhXhXhXhXhXhXhXhXhXhXhXhXhXhXhXhXhXhXhXhXhXhXhXhXhXhXhXhXhXhXhXhXhXhXhXhXhX",
"hXhXhXhXhXhXhXhXhXhXhXhXhXhXhXhXhXhXhX  o - - #         hXhXhXhX    . . O         hXhXhXhXhXhXhXhXhXhXhXhXhXhXhXhXhXhXhXhXhXhXhX",
"hXhXhXhXhXhXhXhXhXhXhXhXhXhXhXhXhX  = a Z ,.y.J.K.6.=           * e ,.y.F.F.y.D O     hXhXhXhXhXhXhXhXhXhXhXhXhXhXhXhXhXhXhXhXhX",
"hXhXhXhXhXhXhXhXhXhXhXhXhXhXhXhX  p H.H.K.L.G.i.y.G.C.S +   O C.K.I.K.S.y.C.I.wXF.Z     hXhXhXhXhXhXhXhXhXhXhXhXhXhXhXhXhXhXhXhX",
"hXhXhXhXhXhXhXhXhXhXhXhXhXhXhX  @ A ,.2.,.S &.7.G.5.<.O.>   > Z A A M O.7.K.D.H.H.G.Z     hXhXhXhXhXhXhXhXhXhXhXhXhXhXhXhXhXhXhX",
"hXhXhXhXhXhXhXhXhXhXhXhXhXhXhX  &.e.5.5.8.C.Z.C.&.1.O.b * Z B.B.r.C.D.D.S.5.0.Z.B.0.B.b     hXhXhXhXhXhXhXhXhXhXhXhXhXhXhXhXhXhX",
"hXhXhXhXhXhXhXhXhXhXhXhXhX    % W / Q 5 o   w ..5.o.n >   % I 5 4   # t @.C.A.7.0.9.q.9.&   hXhXhXhXhXhXhXhXhXhXhXhXhXhXhXhXhXhX",
"hXhXhXhXhXhXhXhXhXhXhXhX    qXaXtXtXaXdXaXyX/   u A - ^ iXsXpXdXdXpX0X/ O z 9.A.9.9.q.:.X.    hXhXhXhXhXhXhXhXhXhXhXhXhXhXhXhXhX",
"hXhXhXhXhXhXhXhXhXhXhXhX  qXpX3     3 pXdXdXdXtX4 @ ^ aX8Xo   E iXdXdXdXuXY u :.9.:.;.*.*.&   hXhXhXhXhXhXhXhXhXhXhXhXhXhXhXhXhX",
"hXhXhXhXhXhXhXhXhXhXhX  3 fXQ         Q dXdXdXyX9X  uX0X        5 fXdXdXdXaX) * X.;.*.#.#.N     hXhXhXhXhXhXhXhXhXhXhXhXhXhXhXhX",
"hXhXhXhXhXhXhXhXhXhXhX  ( sXo         o fXdXsX0X8X% dX^           yXdXdXdXdXsX8X% w V $.@.@..   hXhXhXhXhXhXhXhXhXhXhXhXhXhXhXhX",
"hXhXhXhXhXhXhXhXhXhXhX  ( dX5   4 5   5 dXdXsX0XW 6 dX/   o 3 O   iXdXdXdXdXdXdXgXr.#.#.#.#.:   hXhXhXhXhXhXhXhXhXhXhXhXhXhXhXhX",
"hXhXhXhXhXhXhXhXhXhXhX  5 sX0X  E W O tXdXdXaXW >.@ pXyX  5 ) 4 ^ dXdXdXdXdXfXeXu.@.@.#.$.*.C     hXhXhXhXhXhXhXhXhXhXhXhXhXhXhX",
"hXhXhXhXhXhXhXhXhXhXhX    8XfXuX8X8XuXdXdXaXE r.wX6.( fXtXW 5 8XaXdXdXdXdX0X3.C.$.%.;.9.0.9.9.m     hXhXhXhXhXhXhXhXhXhXhXhXhXhX",
"hXhXhXhXhXhXhXhXhXhXhXhX    8XpXaXsXfXfXuXQ y.U.U.U.e / pXaXfXfXfXfXpX0XE w.V.$.;.9.A.B.G.K.L.G.e   hXhXhXhXhXhXhXhXhXhXhXhXhXhX",
"hXhXhXhXhXhXhXhXhXhXhXhX  > >.a / 7X/ E Z S.U.U.U.U.I.w.6 / 8X8X7XW % A S.0.%.*.9.B.L.U.U.T.T.L.0.    hXhXhXhXhXhXhXhXhXhXhXhXhX",
"hXhXhXhXhXhXhXhXhXhXhXhXhX& -.0.5.6.Z > t.U.U.U.U.U.U.I.6.Z ,.,.t.u.D.0.%.%...9.Z.T.T.T.T.T.L.K.H.b   hXhXhXhXhXhXhXhXhXhXhXhXhX",
"hXhXhXhXhXhXhXhXhXhXhXhXhXX #.%.$.%.n ,.J.wXU.U.U.U.U.U.I.6.X.:.:.*.*.$...n =.B.P.P.P.P.L.L.K.H.C.4.    hXhXhXhXhXhXhXhXhXhXhXhX",
"hXhXhXhXhXhXhXhXhXhX      X r z z u p y.U.U.U.U.U.Y.U.U.wXI.,.e : : : u n C &.4.S.I.K.K.H.H.Z.B.B.0.+   hXhXhXhXhXhXhXhXhXhXhXhX",
"hXhXhXhXhXhXhXhXhX    F M.b.F r C :.Z.I.Y.U.U.U.U.U.U.U.I.wXT.u.4.=.C r d { d.J < &.D.Z.Z.B.A.A.9.0.w   hXhXhXhXhXhXhXhXhXhXhXhX",
"hXhXhXhXhXhXhXhXhX  { )./.^.).M.F r o.G.T.Y.Y.Y.U.wXY.Y.wXwXF.e.n d s.b.^.(./.(.x.< ;.A.A.A.:.:.:.7.b   hXhXhXhXhXhXhXhXhXhXhXhX",
"hXhXhXhXhXhXhXhXhX  W.R.v.(.^././.Q.c.F v v D <.5.2.<.>.v 8 J x.b./././.v.^.^./.(.H C A.:.:.;.;.:.:.M   hXhXhXhXhXhXhXhXhXhXhXhX",
"hXhXhXhXhXhXhXhXhX  W./.{ d c.m.~.!.(.)./.Q.M.b.c.b.b.M.M./.).(./._._.~.X { /./.(.a.v 9.:.;.;.-.*.;.l   hXhXhXhXhXhXhXhXhXhXhXhX",
"hXhXhXhXhXhXhXhXhX  k./.).b.h f [ h.l.z.n.E.!.^.!.!.!.m.N.N.z.z.h.[ h o < 1 /././.v C :.-.*.*.*.*.*.u   hXhXhXhXhXhXhXhXhXhXhXhX",
"hXhXhXhXhXhXhXhXhX  # M././.).W.s.< f _ ` ] ] ] ] ' ' ' ` _ _ 9 8 a.b.Q.).Q././.d., =.*.$.$.$.#.#.$.#   hXhXhXhXhXhXhXhXhXhXhXhX",
"hXhXhXhXhXhXhXhXhXhX  1 c.R.n.E.^.).~.v.c.d.a.{ { F { d.x.c.b.Q.)._.R.!./.).Q.F , ..$.$.#.@.@.@.@.V     hXhXhXhXhXhXhXhXhXhXhXhX",
"hXhXhXhXhXhXhXhXhXhXhXO # f f.h.l.z.z.m.~./.).).).).)./.^.R.n.z.l.l.l.m.v.{ , g ..#.@.@.@.@.@.@.@.:   hXhXhXhXhXhXhXhXhXhXhXhXhX",
"hXhXhXhXhXhXhXhXhXhXhX    g r , j | j.p.p.g.h.h.h.h.h.j.p.p.g.g.f.} h 8 , g B  . .@.@.@.@.@.@.#.k     hXhXhXhXhXhXhXhXhXhXhXhXhX",
"hXhXhXhXhXhXhXhXhXhXhXhX  u B m g d 8 8 h j _ ` [ ` } _ j f 8 , r g m B  . .V V  . .X. . .X.@.c O   hXhXhXhXhXhXhXhXhXhXhXhXhXhX",
"hXhXhXhXhXhXhXhXhXhXhXhX  . l l l V C N g g g r , r d d g m N V  . .V  . . .V  .V  .V V  .X.x .   hXhXhXhXhXhXhXhXhXhXhXhXhXhXhX",
"hXhXhXhXhXhXhXhXhXhXhXhXhX  + u z k l B .... . .X. . .X. . . . . . . . .V V c x x x c V c t     hXhXhXhXhXhXhXhXhXhXhXhXhXhXhXhX",
"hXhXhXhXhXhXhXhXhXhXhXhXhXhX    : y y y k l B V  . . . . . .V V V B c l k k k k l c l 0       hXhXhXhXhXhXhXhXhXhXhXhXhXhXhXhXhX",
"hXhXhXhXhXhXhXhXhXhXhXhXhXhXhX    + q y k i y y k k k k k k k y i y i i i g k k u &       hXhXhXhXhXhXhXhXhXhXhXhXhXhXhXhXhXhXhX",
"hXhXhXhXhXhXhXhXhXhXhXhXhXhXhXhXhX    O & q u i k k k y i i i i i i i i q t : X       hXhXhXhXhXhXhXhXhXhXhXhXhXhXhXhXhXhXhXhXhX",
"hXhXhXhXhXhXhXhXhXhXhXhXhXhXhXhXhXhXhX        X # & : 0 0 q 0 0 : & + # o.9.9.O..   hXhXhXhXhXhXhXhXhXhXhXhXhXhXhXhXhXhXhXhXhXhX",
"hXhXhXhXhXhXhXhXhXhXhXhXhXhXhXhXhXhXhXhXhX  @ u + K T Y     . P P .X.Xo.e.q.8.8.e   hXhXhXhXhXhXhXhXhXhXhXhXhXhXhXhXhXhXhXhXhXhX",
"hXhXhXhXhXhXhXhXhXhXhXhXhXhXhXhXhXhXhXhXhX  w O.Y }.,X;X-XXX-X1X,X3X6X~ O.8.4.5.t   hXhXhXhXhXhXhXhXhXhXhXhXhXhXhXhXhXhXhXhXhXhX",
"hXhXhXhXhXhXhXhXhXhXhXhXhXhXhXhXhXhXhXhX    > b R @X2X3X4X4X4X>X>X3X6X:XZ ;.4.=.S +   hXhXhXhXhXhXhXhXhXhXhXhXhXhXhXhXhXhXhXhXhX",
"hXhXhXhXhXhXhXhXhXhXhXhXhXhXhXhXhXhXhXhX  # n = U #X$X&X&X&X&X&X&X>X3X1X2 >.0.7.8.M     hXhXhXhXhXhXhXhXhXhXhXhXhXhXhXhXhXhXhXhX",
"hXhXhXhXhXhXhXhXhXhXhXhXhXhXhXhXhXhXhX    p * K +X$X&X&X&X&X&X&X&X&X>X2X2 = 7.8.8.O.>     hXhXhXhXhXhXhXhXhXhXhXhXhXhXhXhXhXhXhX",
"hXhXhXhXhXhXhXhXhXhXhXhXhXhXhXhXhXhXhX  ; t . {.#X%X$X&X&X&X&X&X&X&X>X>XoX@ 6.8.7.7.7.&.*   hXhXhXhXhXhXhXhXhXhXhXhXhXhXhXhXhXhX",
"hXhXhXhXhXhXhXhXhXhXhXhXhXhXhXhXhXhX  . -.u @ [.+X#X=X=X$X&X&X&X&X&X&X&X#X$ S q.7.8.8.1.<.    hXhXhXhXhXhXhXhXhXhXhXhXhXhXhXhXhX",
"hXhXhXhXhXhXhXhXhXhXhXhXhXhXhXhXhXhX  z =.S $ ].[.OXOXOX@X%X$X%X$X%X=X=XOXL p 7.8.8.t.t.,.@   hXhXhXhXhXhXhXhXhXhXhXhXhXhXhXhXhX",
"hXhXhXhXhXhXhXhXhXhXhXhXhXhXhXhXhXhX  o.o.O.= U ].[.[.[.[.].[.OXOXOX+X+X].6 &.4.q.e.,.i.D +   hXhXhXhXhXhXhXhXhXhXhXhXhXhXhXhXhX",
"hXhXhXhXhXhXhXhXhXhXhXhXhXhXhXhXhX    2.O.M a 7 U '.].].+X@X@X#X+XOX[.`.L O.=.= o.i.,.r.Z O hXhXhXhXhXhXhXhXhXhXhXhXhXhXhXhXhXhX",
"hXhXhXhXhXhXhXhXhXhXhXhXhXhXhXhXhXhX  >.>.- a $ Y T L U `.`.`.U K 6 |.;X2 s 5.& a i.>.2.#   hXhXhXhXhXhXhXhXhXhXhXhXhXhXhXhXhXhX",
"hXhXhXhXhXhXhXhXhXhXhXhXhXhXhXhXhXhX  - A =     P ;X XP   O   O  X<X<X<X X  +     A e .   hXhXhXhXhXhXhXhXhXhXhXhXhXhXhXhXhXhXhX",
"hXhXhXhXhXhXhXhXhXhXhXhXhXhXhXhXhXhXhX          $ |.-X|.O     ~ <X-X X.X! $             hXhXhXhXhXhXhXhXhXhXhXhXhXhXhXhXhXhXhXhX",
"hXhXhXhXhXhXhXhXhXhXhXhXhXhXhXhXhXhXhXhX    . >.D 1.+.6 o     ! Y ,.,.t.r.w.a   hXhXhXhXhXhXhXhXhXhXhXhXhXhXhXhXhXhXhXhXhXhXhXhX",
"hXhXhXhXhXhXhXhXhXhXhXhXhXhXhXhXhXhXhXhXhX  O.u.2.Z.V.8.$     = q.V.D.2.H.e.e.  hXhXhXhXhXhXhXhXhXhXhXhXhXhXhXhXhXhXhXhXhXhXhXhX",
"hXhXhXhXhXhXhXhXhXhXhXhXhXhXhXhXhXhXhXhXhX  s O.D 1.<.+.>     = O.<.5.A 5.D o.  hXhXhXhXhXhXhXhXhXhXhXhXhXhXhXhXhXhXhXhXhXhXhXhX",
"hXhXhXhXhXhXhXhXhXhXhXhXhXhXhXhXhXhXhXhXhXhX            hXhXhXhX    O     . O   hXhXhXhXhXhXhXhXhXhXhXhXhXhXhXhXhXhXhXhXhXhXhXhX",
"hXhXhXhXhXhXhXhXhXhXhXhXhXhXhXhXhXhXhXhXhXhXhXhXhXhXhXhXhXhXhXhXhXhXhXhXhXhXhXhXhXhXhXhXhXhXhXhXhXhXhXhXhXhXhXhXhXhXhXhXhXhXhXhX",
"hXhXhXhXhXhXhXhXhXhXhXhXhXhXhXhXhXhXhXhXhXhXhXhXhXhXhXhXhXhXhXhXhXhXhXhXhXhXhXhXhXhXhXhXhXhXhXhXhXhXhXhXhXhXhXhXhXhXhXhXhXhXhXhX",
"hXhXhXhXhXhXhXhXhXhXhXhXhXhXhXhXhXhXhXhXhXhXhXhXhXhXhXhXhXhXhXhXhXhXhXhXhXhXhXhXhXhXhXhXhXhXhXhXhXhXhXhXhXhXhXhXhXhXhXhXhXhXhXhX",
"hXhXhXhXhXhXhXhXhXhXhXhXhXhXhXhXhXhXhXhXhXhXhXhXhXhXhXhXhXhXhXhXhXhXhXhXhXhXhXhXhXhXhXhXhXhXhXhXhXhXhXhXhXhXhXhXhXhXhXhXhXhXhXhX",
"hXhXhXhXhXhXhXhXhXhXhXhXhXhXhXhXhXhXhXhXhXhXhXhXhXhXhXhXhXhXhXhXhXhXhXhXhXhXhXhXhXhXhXhXhXhXhXhXhXhXhXhXhXhXhXhXhXhXhXhXhXhXhXhX",
"hXhXhXhXhXhXhXhXhXhXhXhXhXhXhXhXhXhXhXhXhXhXhXhXhXhXhXhXhXhXhXhXhXhXhXhXhXhXhXhXhXhXhXhXhXhXhXhXhXhXhXhXhXhXhXhXhXhXhXhXhXhXhXhX"
};
