/* XPM */
static char *result[] = {
/* columns rows colors chars-per-pixel */
"64 64 231 2 ",
"   c #030302",
".  c #090703",
"X  c #0D0B03",
"o  c #060808",
"O  c #0D0B0A",
"+  c #120E03",
"@  c #1F0F05",
"#  c #110E0B",
"$  c #151102",
"%  c #1B1503",
"&  c #1E1902",
"*  c #14120D",
"=  c #1A150C",
"-  c #1F190C",
";  c #0F0F10",
":  c #151311",
">  c #1A1611",
",  c #1D1A14",
"<  c #181718",
"1  c #1D1B19",
"2  c #231C02",
"3  c #291E04",
"4  c #23150B",
"5  c #221C0D",
"6  c #361D0C",
"7  c #221C15",
"8  c #291E17",
"9  c #231D19",
"0  c #262102",
"q  c #2B2203",
"w  c #2D2A01",
"e  c #272008",
"r  c #2A220C",
"t  c #312602",
"y  c #342A03",
"u  c #3A2D03",
"i  c #37260B",
"p  c #3D3203",
"a  c #3A3505",
"s  c #262116",
"d  c #2B2413",
"f  c #2F2811",
"g  c #26211B",
"h  c #2A251D",
"j  c #2E291D",
"k  c #332716",
"l  c #342A13",
"z  c #322A1D",
"x  c #3B2D1C",
"c  c #3D3311",
"v  c #3C321B",
"b  c #2C2620",
"n  c #2E2921",
"m  c #332D24",
"M  c #362D25",
"N  c #362F28",
"B  c #382F29",
"V  c #363025",
"C  c #3B3325",
"Z  c #373129",
"A  c #3B342A",
"S  c #3F382D",
"D  c #442F08",
"F  c #433505",
"G  c #453A03",
"H  c #4A3C04",
"J  c #48390B",
"K  c #412E16",
"L  c #473919",
"P  c #423524",
"I  c #483B25",
"U  c #42362A",
"Y  c #423A2E",
"T  c #443C32",
"R  c #493E33",
"E  c #4D4203",
"W  c #484401",
"Q  c #534305",
"!  c #544A03",
"~  c #5B4B05",
"^  c #574708",
"/  c #5C5203",
"(  c #5A5503",
")  c #584819",
"_  c #624E06",
"`  c #645305",
"'  c #6A5606",
"]  c #655A01",
"[  c #6B5B04",
"{  c #65540B",
"}  c #695609",
"|  c #6E5B09",
" . c #725C06",
".. c #735C0A",
"X. c #655B10",
"o. c #6C6202",
"O. c #6A640B",
"+. c #726402",
"@. c #756C03",
"#. c #796B02",
"$. c #7C630B",
"%. c #786909",
"&. c #7B7206",
"*. c #6C6312",
"=. c #776E15",
"-. c #4D4126",
";. c #51432F",
":. c #5C502E",
">. c #474034",
",. c #4B4235",
"<. c #4D4539",
"1. c #4F483C",
"2. c #534734",
"3. c #51463A",
"4. c #544B3C",
"5. c #594E3E",
"6. c #5A513E",
"7. c #61543C",
"8. c #574E40",
"9. c #594E41",
"0. c #5C5244",
"q. c #5F5748",
"w. c #615646",
"e. c #645945",
"r. c #6A5D45",
"t. c #615749",
"y. c #635A49",
"u. c #6A5E4C",
"i. c #6C5F50",
"p. c #6D614E",
"a. c #72654D",
"s. c #796A4E",
"d. c #6E6251",
"f. c #726651",
"g. c #756A54",
"h. c #7A6D55",
"j. c #7B6E58",
"k. c #7E7155",
"l. c #7D725A",
"z. c #836C05",
"x. c #80670B",
"c. c #846A0B",
"v. c #896E0C",
"b. c #847503",
"n. c #877A05",
"m. c #8D720B",
"M. c #917C07",
"N. c #97790D",
"B. c #876D10",
"V. c #897711",
"C. c #937612",
"Z. c #957813",
"A. c #827355",
"S. c #82755C",
"D. c #85795E",
"F. c #8C7B5D",
"G. c #897761",
"H. c #867B60",
"J. c #8A7D62",
"K. c #907D61",
"L. c #8B8407",
"P. c #968706",
"I. c #999305",
"U. c #9B9511",
"Y. c #A6890B",
"T. c #A89907",
"R. c #B79909",
"E. c #AC8B11",
"W. c #B18F12",
"Q. c #A79B11",
"!. c #B59212",
"~. c #B99612",
"^. c #BD9B13",
"/. c #ABA40A",
"(. c #B5A70A",
"). c #BBB40B",
"_. c #AAA514",
"`. c #B3A613",
"'. c #B2AC15",
"]. c #BCAE14",
"[. c #BAB514",
"{. c #C29E13",
"}. c #C6AC0B",
"|. c #C9B40A",
" X c #DBB60D",
".X c #C6A214",
"XX c #CAA515",
"oX c #CEA815",
"OX c #D5AD17",
"+X c #C5BC16",
"@X c #DFB817",
"#X c #DCB418",
"$X c #DBBB18",
"%X c #E2BA18",
"&X c #E4BC18",
"*X c #D1CB0B",
"=X c #D6CB0A",
"-X c #C8C318",
";X c #D5C916",
":X c #DAD415",
">X c #E9C90C",
",X c #EAD109",
"<X c #F0D40C",
"1X c #E2C612",
"2X c #ECCD11",
"3X c #E8D216",
"4X c #F4D917",
"5X c #EFE714",
"6X c #E5E51A",
"7X c #F4F217",
"8X c #FAEC24",
"9X c #FCF229",
"0X c #FFFC39",
"qX c #92815E",
"wX c #8E8165",
"eX c #938365",
"rX c #998663",
"tX c #9D8A66",
"yX c #938468",
"uX c #9D8B69",
"iX c #9D8C70",
"pX c #A08C67",
"aX c #A18E6A",
"sX c #A4926D",
"dX c #A89473",
"fX c #B39E79",
"gX c #B6A37A",
"hX c #FFFF43",
"jX c #B6A480",
"kX c #C9B78A",
"lX c #D6C296",
/* pixels */
"    , j Y S z A S j z j d d l c c c c i f j I Y Y -.j 9 j j j v C z C S z z C z s d 5 f c c c c c v f s L <.;.>.Y z z j j s V 4.",
"  O 5.F.rXtXpXrXF.A.s.6.l y W ~ { { ` ~ F v A.F.F.qXS.4.Y 2.p.a.A.F.qXqXF.A.k.k.p.2.l p ~ ` ` { ~ H y r 6.s.k.s.A.A.A.A.A.A.A.p.",
"  9 V g.tXrXqXwXqXrXqXa.C p ^ } | | ..} E P A.qXtXpXqX2.7.dXdXaXaXtXtXrXtXtXtXtXtXf.x E } | | | | ^ p C a.F.rXrXqXqXqXtXqXpXqXa.",
"o h h U k.aXrXwXrXpXqXr.z q F W Q Q ~ ` ! L r.k.s.e.Y n 2.gXkXfXsXaXaXtXtXtXtXtXtXF.L ^ ` ^ Q Q H F q f 6.A.eXrXpXaXaXsXgXaXr.R ",
"O h n Z 8.A.j.g.g.h.r.C % 2 t y t 3 t J H c ,.9.R 8 h V T K.kXdXeXwXqXl.S.S.l.A.A.a.L H H u 3 q t t 2 % z 6.f.j.l.k.g.H.gXa.m B ",
"o n m A >.0.y.q.q.q.,.s 2 u H ~ Q u 3 2 y i C T A j V Y 9.h.A.f.p.p.q.q.q.e.q.e.0.,.l y 3 2 u Q ~ Q u 2 s ,.q.q.t.q.q.t.p.,.N A ",
"O n m A 8.0.q.y.t.q.<.h 3 u ~ ' ` H 3 % % 2 j V M m V Y 9.5.R T >.,.,.1.<.<.1.,.T m % 2 2 3 J _ } ~ p 3 s >.0.0.0.q.q.t.w.,.S Z ",
". m m S <.0.q.y.t.t.4.j 2 3 t F u y q 3 2 3 r r e e f l l k r f l l l l l l l f l 3 3 2 3 t u F G u q 2 d ,.0.8.0.q.q.t.u.3.S A ",
"  b m S <.t.y.y.y.y.4.z % 2 y H H H F F F D J H H H H H G J H G G G F H J J G D F F D u D u F H Q G 3 % h R 9.9.9.0.q.q.y.<.S B ",
"o b m S 3.y.y.t.y.y.4.h % t _ c.v.x...x.$.x.x.c.c.c.x.x.x.x.x.x.%.$.$...............| | ' ' | x.m.$.H 2 s R 9.9.9.9.0.q.t.<.S A ",
"o n N S 3.t.y.y.y.t.3.h 2 G C.{..XR.~.~.~.{.^.^.{.!.~.!.W.!.W.E.E.W.W.E.E.W.W.!.!.!.W.!.E.E.Y.~.{.!._ 2 8 ,.9.9.0.9.q.0.0.<.S B ",
". h N T 3.t.y.i.d.d.6.j % H N.#X&X%X%X%X&X&X&X&X&X&X&X%X%X%X%X#X#X%X&X&X&X&X&X&X&X&X&X&X%X%X%X%X%X!.! 2 8 ,.9.9.9.0.q.q.9.T S B ",
"  9 N T 3.t.i.i.g.j.p.V % t  .E.XX.X.X{.^..X.XXXOXOX%X#X#X#X#XOXOXOX#X#X#X#X#XOXoX.X{.{.^..X.XXX!.v.D 2 M 4.5.9.0.0.0.q.9.T S Z ",
"  , N S 8.i.g.j.h.h.f.Y % 3 H  .v.v.x. .} | ..$.B.C.Z.C.Z.Z.C.C.C.Z.Z.Z.Z.Z.C.B.$.....} ' $.v.v...H t @ Z t.9.9.9.0.0.0.8.T S Z ",
"  : Z S 8.f.S.h.g.h.g.3.5 t ^ $.v.c._ u 2 2 e r 6 r k l l l l k l l l i l l l f f 5 2 2 y Q ..m.z._ u % 8 0.9.8.0.0.0.0.9.>.S Z ",
"    m S R i.j.j.h.h.h.u.k q H  .c...Q y 2 2 = s 1 , , 7 > : : < > > 7 , 7 7 , , 9 7 2 3 q H ..c.$.^ y $ 9 0.q.9.9.0.0.0.9.<.S A ",
"    h B T <.w.f.j.h.j.j.T % q p H G y w 3 2 7 h b b b b b b b g b b m n n m m m n g & q q t p H F t 2 $ 9 5.w.9.0.9.0.0.0.<.S A ",
"    n V m B Y 9.j.j.j.G.r.7 q F Q Q Q E G q 8 B N m n n N S Z Z Z B B N m m N Z N n 3 p E Q Q Q G t 2 7 m w.w.0.0.0.9.0.t.<.S A ",
"  o V B b b N R i.j.g.G.j.d u ^ } | | | ` p s S S S S S S R R T T T S S N Z Z Z Z j t ^ | ....| ~ F 3 9 B i.i.9.0.0.0.t.q.>.S A ",
"  , T R U m m T t.j.g.l.g.8 u H ~ ` | ..' H z T T S T S R 8.8.R R R T T Z T T T Y N p ~ | | { _ ^ u 3 9 B i.f.0.0.0.9.0.0.<.S B ",
"o 9 T 9.9.R B U 9.h.j.g.0.4 $ 2 3 y Q ` ' Q v ,.R T R T T 3.4.3.8.>.>.Z V T Y T T C H ` ' ^ F q 2 % % 7 B h.f.9.0.0.0.0.9.>.S B ",
"O , B 9.s.p.T T 9.g.j.t.A $ 2 q 3 3 3 F Q H v >.<.,.>.T T 1.3.3.S S Z b N V Z U A C F Q H t 2 3 3 3 $ = m j.g.9.9.0.0.9.9.>.Z m ",
"# 1 n R F.rX9.T 9.u.p.0.z 2 y H ^ H t 2 t y f T 3.5.5.,.Y <.0.5.R Z b b N m m M m d t y 3 3 J H Q u q % z S.j.9.9.0.0.0.0.>.Z n ",
"O 9 b T A.dXK.r.e.u.p.w.V 2 u ^ { _ F 2 % 2 5 V 2.4.2.,.M M R A j 9 9 b h s s s 7 5 % % 2 u Q } ` H q % m D.S.9.9.0.9.0.0.>.B n ",
"O 9 m T f.F.qXA.a.u.p.t.A & 2 t u u t 3 2 2 2 3 d k f f r 3 q 3 2 e 3 r 3 r q r r q 2 2 q w u F u q 2 = m D.S.0.9.9.8.8.<.T N b ",
"# 9 m R f.h.p.p.d.p.p.e.A % 3 H _ _ H H J F F F D F F F J J J F F J H F F F F F F F F F F F H ^ H t % $ 8 S.S.8.8.8.R Z 9 1 b b ",
"; 9 m <.f.f.t.t.d.p.p.t.x % F v.W.E.N.m.v.c.x.x.x.$.$.$.$...$.$.$.$.$.$.$.$.$.$.$.$.c.$.....c.C.v.^ 3 % 8 g.g.4.>.T Z b s 1 1 1 ",
"O g B R p.p.p.p.p.p.p.y.C % Q E.%X#XOXoXoXoXoXXXXXXX.X.X{.^.^.~.!.^.{.^.^.{.{..XXXXXoXXXXX{.{.oX~. .t @ 7 4.0.T N Z 8.9.3.T h : ",
"; b A T t.p.p.p.p.p.p.u.Z % F m.OX%X%X%X#X%X&X&X&X&X&X&X%X%X&X&X%X&X&X&X&X&X&X&X&X#X@X@X%X&X%X X!._ 2 + = j m h s >.7.e.5.,.j , ",
"O b Z S 0.d.d.p.u.p.u.p.S % 3 Q v.N.Y.N.m.v.N.N.Y.E.E.E.E.E.!.!.!.!.!.W.W.!.W.W.Y.N.C.m.N.N.N.N. .F 2 $ * , 1 = j ;.6.2.>.j > > ",
"# n A S 0.f.f.p.d.i.d.d.>.= t Q ..c..._ F y u I -.-.L L I L ) J J J J J J J L J K u y y H ' x.x.' F 2 + # X # s A S S >.C , # # ",
"O n B A 5.y.d.i.u.u.i.d.8.= w ! c.m.$.H q 2 d 4.4.<.T Y V V z 5 % % 7 , = > , 9 8 4 2 3 u _ c.v. .F 2 + # # = j V j j C C , # X ",
"O h N N 1.0.t.d.i.u.d.f.0.s % w G E J y w 0 0 1.1.T V j > = % % $ $ $ + # # = > s - 2 q q u H H p 2 $ + * z Y C z h h z m , * X ",
"O h N N ,.8.4.4.0.t.u.3.N h = q p H F J a w - S >.V s = % 0 0 q t w 0 & $ + $ > > = e p G p a y 2 % + X - ,.,.M m j j M m , # O ",
"o n A N ,.4.1.1.1.<.S N m h % w F E Q E W a & V V f $ $ 0 a G W W W a a & + + * = = w G E H F y 3 % X o 9 ,.A V N N N V A g * # ",
"o b S S 6.f.l.g.f.u.t.0.R 7 X & e t w w w 0 X , - = $ 0 a ( o.#.&.&.o.! a & + $ * $ & w q q q e 2 + . X g C V A A Y Y Y ,.n = * ",
". g A S t.sXuXl.w.0.6.w.1., . $ & 0 q 0 0 & X $ $ + $ w ( L.T.].}.}.Q.b.! 0 + + + X + 0 0 2 q q % + . . h V V A Y Y ,.<.4.V , > ",
"o 8 B B 0.l.y.4.1.,.>.,.C * . + $ & & 2 & $ $ 0 0 $ % W L.}.1X4X3X3X1X}.@.w + & 0 & X & 2 2 & % $ + . X h z n m Z Y ,.1.6.A 1 > ",
"o > b n 1.p.6.,.S n d s - X X X X + $ $ & $ & a W & & W T.2X4X9X9X8X4X=XL.a % w a w $ $ $ $ $ + $ + X X = = , s j Z Y 1.0.S s > ",
"  o 9 b S p.6.>.j % & 2 0 0 0 q 0 q w y w & & ( @.W 0 ( (.4X9X0XhX0X8X,XL.W & ( @.W & 2 y y w q 0 q q 0 2 & $ $ - m A ,.6.S g > ",
"  o 9 9 T e.4.j $ w H ~ ` ] o.[ ] ` ] +.] w q o.I.( w ( /.3X9XhXhXhX9X3XL.W w @.L.( & a [ o.` ` ] [ ] ` / E y 2 + 9 m Y 0.>.1 - ",
"  O 1 8 5.u.S = % F ! ] +.+.+.+.@.#.#.b.#.p 0 ( L.&.a W L.*X8X0XhX0X8X|.@.a W L.L.! 0 W b.b.#.#.#.#.+.+.o./ E q + * h Z 5.T 1 > ",
"  o 9 Z p.2.s $ % w u F H H H H H Q Q Q E y 2 W b.I.@.W ( T.:X8X9X6X=XP.W ! &.I.@.a & a Q Q Q Q H H H H H F y 3 + X = m 4.T 1 > ",
"  O N 7.h.V 0 E [ #.#.x.z.n.M.M.M.P.M.b.b.@.E a o./.).I.@.( L./.).T.@.! @./.).I.( y / &.b.b.L.M.L.M.M.n.z.+.#.#.] a $ 8 ,.S , = ",
"O g A 0.p.s p n.(.|.OX}. X>X2X>X>X,X<X>X,X=XY.W ! I.*X5X*XU.=.X.! ( &./.*X7X-X&.G ! T.,X,X,X<X<X>X>X2X&X X}.|.}.T.+.q > Y V > * ",
"X j C <.e.& u  .P.Y.Y.T.R.{.R.R.R.}.}.|.|.|.P.E u [ (.5X7X7X:X[.[.[.6X7X7X*XI.! y ~ T.|.|.}.|.R.R.R.R.{.R.Y.T.Y.N.' w % M j * * ",
"o j V >.w.2 u H ^ / ' |  .' ' } ` ` | [ [ [ +.#.+.o.&.T.-X6X6X6X6X6X6X:X).L.] o.+.+.+.[ [ [ ] ] ] ` [  .| X.` ~ ! H t 2 j s O # ",
"o h n Y r.Q [ ^.+X[.[.'.`.`.[.-X;X;X;X;X;X;X=X:X:X-X).[.[.[.[.'._.'._.L.U./././.(.).(.'.(.`.`.`.`.Q.`.`.+X-X[.;X;X^.' E f , O O ",
"O h m S p./ ` v.(.'.Q.'.P.U.L.U.Q.Q.].+X$X+X-X-X+X+X).+X[.-X-X[._._._.U.Q.R.).+X|.[.[.[.[._._.XX]._.Q.U.'.'.'.+X+Xm.H H i 4 @ O ",
"# n n S a.:.) F J ^ J J ) H J ~ ~ ~ ^ H ~ { X.^ { *.*.X.O.*.X.=.*.*.%.=.=.%.+.%.%.%.%.V.Z.Z.%.%.%.=.&.B.=.C.*.%.H t D K x > @ # ",
"# j n A l.e.6.v K L L K K D i k l x v v P ;.;.-.2.2.;.P v C C x x x x K P P P P U U C V m z 4 6 i 6 t i D 6 6 D D 6 K I 0.N 9 b ",
"# b m A g.f.p.p.P I I I R R I n h z Y 3.5.,.T Y A S S n Y 2.Y V Y 5.4.3.3.<.1.T A S Z Z V h 7 8 U 6 6 K R P I R R R I 4.w.N h b ",
": b n A d.g.l.g.g.g.p.g.F.J.h.r.a.h.S.F.wXwXl.l.f.g.f.p.l.k.4.0.uXgXiXJ.H.j.g.f.r.e.a.f.s.g.h.A.A.s.r.dXfX9.9.9.3.4.4.0.e.N h h ",
"O h m Z y.g.g.g.g.g.g.j.G.S.j.D.yXyXeXeXyXyXyXiXyXwXwXwXwXh.0.qXkXlXjXdXsXeXD.l.k.l.l.A.A.S.S.A.A.h.G.dXG.9.9.9.8.8.8.q.e.N g h ",
"; h n Z y.j.j.g.g.g.j.l.H.S.S.D.J.J.H.H.H.H.l.l.D.wXD.wXg.6.q.wXjXdXJ.S.k.l.a.p.p.a.f.f.f.g.i.i.y.y.e.0.9.R 9.R 8.8.8.8.0.n b h ",
"* b n m q.j.g.j.l.H.D.J.J.H.H.J.H.H.D.H.H.l.l.l.l.wXl.p.1.<.e.wXJ.g.y.t.t.t.q.0.0.t.y.t.y.t.w.9.0.0.9.9.4.9.9.9.8.8.>.0.8.n b g ",
"; b n m q.g.j.H.H.H.H.H.H.wXH.H.J.H.H.H.H.H.l.wXH.H.d.8.>.4.p.D.g.q.q.q.q.y.q.0.0.9.w.t.0.9.0.0.0.0.0.0.0.8.8.8.8.T 1.f.6.j h g ",
": n n Z 9.d.H.K.wXwXH.wXH.H.H.H.l.H.H.H.H.H.l.H.H.p.8.>.1.p.l.j.u.q.y.t.y.y.q.9.0.9.9.9.0.9.0.9.0.0.q.0.0.0.q.6.S N e.l.0.j h 1 ",
"* g m Z 1.1.i.J.wXwXyXyXyXwXwXwXJ.yXyXK.J.l.H.l.p.4.>.<.g.uXl.y.t.t.u.u.y.i.q.0.9.w.0.0.0.0.t.t.q.q.0.0.0.0.4.S b T g.g.0.h g 1 ",
"; g n Z 1.0.<.0.l.l.l.l.l.H.H.H.H.H.G.j.l.j.j.i.1.S >.g.sXeXi.0.q.0.0.q.y.y.i.0.t.t.t.t.t.t.t.t.0.1.,.,.,.>.m j R g.j.d.6.g 1 9 ",
"# g n b B w.9.Y 1.<.T R 1.<.1.0.9.9.8.8.9.9.0.R h b <.j.g.9.<.<.,.,.<.,.1.8.<.R R <.<.<.8.R 8.R S B n n j 1 1 4.a.p.S S m < , , ",
"# g g > 9 9 8 9 , = > < 9 b g b h h 9 h b b n 9 : 8 T 3.S m m B B Z N N m B m m N N N B m N n n b 9 9 < : # 6.h.6.g : , 1 , : : ",
": h b 1 7 7 7 9 7 9 9 9 8 9 9 g 9 9 9 9 9 9 9 < : 9 n h 9 7 1 1 9 9 9 9 1 1 9 b b b b b h g b h 8 9 , 7 : V 0.4.j > = : > : : # ",
": > , : : > : : * # : : : > : : > > * ; ; ; ; O o O O # # o     O O o   O O o ; ; < < < 1 < 1 1 < < : 1 > g h , O o o o o O O   "
};
