/* XPM */
static char *result[] = {
/* columns rows colors chars-per-pixel */
"64 64 79 1 ",
"  c #070707",
". c #0E0E0D",
"X c #120F0F",
"o c #13110F",
"O c #18130F",
"+ c #151413",
"@ c #191613",
"# c #1D1916",
"$ c #1D1B1A",
"% c #211B17",
"& c #221E1B",
"* c #24211E",
"= c #29231E",
"- c #252320",
"; c #2A2622",
": c #2D2924",
"> c #322C26",
", c #3A2F26",
"< c #342E28",
"1 c #392F29",
"2 c #363026",
"3 c #3D3126",
"4 c #373128",
"5 c #3C3229",
"6 c #412F25",
"7 c #443425",
"8 c #483626",
"9 c #463926",
"0 c #4A3926",
"q c #443529",
"w c #493629",
"e c #46392A",
"r c #4A3B2C",
"t c #503E2E",
"y c #433B32",
"u c #4D3E31",
"i c #503F32",
"p c #4D402E",
"a c #4E4133",
"s c #524334",
"d c #544639",
"f c #58463A",
"g c #56493B",
"h c #5A4C3D",
"j c #5E513F",
"k c #5C4E40",
"l c #5E5142",
"z c #604F43",
"x c #635445",
"c c #665846",
"v c #685847",
"b c #655748",
"n c #68574A",
"m c #665849",
"M c #6B5B4B",
"N c #6D5E50",
"B c #715F51",
"V c #6C604E",
"C c #70604F",
"Z c #6E6051",
"A c #736454",
"S c #786756",
"D c #766856",
"F c #796957",
"G c #766758",
"H c #786759",
"J c #776959",
"K c #7B6C59",
"L c #7F705D",
"P c #816F5C",
"I c #83715C",
"U c #8B745C",
"Y c #92775E",
"T c #927A5E",
"R c #997E5F",
"E c #957C62",
"W c #9A7F65",
"Q c #9C8266",
"! c #A48A6C",
/* pixels */
" .+$$&&$$*&-;&&&*:;;:::::;;-**%%%###%##%%#%%#%&===&%#%%&*=%*%%%%",
"*7arirsdde7ru-%%;5q899er951;-*%$%@#%%&%**&&&&%@@&=%%&****%****==",
"rxMMNAAAMddvxq%*:559,,,>;;:<>:$##@&;-;;:;::;:;-@@&><>>>>>>>284=%",
"vFKPIKPAhhMAAd;->90r87:-:rMNMxjs9,erssaaspssr8<;#=satrprrasgdr*=",
"AASAvxhflZSABd;-rkmKADMZDAACMZNMmaaaddgdgghhxh3>@;xxxxczxMMcs::0",
"TUIIFAAFKISCMs::aglDMcccMcxbmMmmmllkllllllxxFM0q$=MCMMMMAMc0:7cL",
"SVCASAAAAMMxcs4>psgAZcxcxxxxcccbmmcmmmcmmmcMICr0%&MIFFPPPMh7pAYU",
"cvbccxkzxlkxhs3=9arlKAvxcxcccxxcxcmmcmxcxccMIC90&&gMCSSMxgslFUIC",
"ccxxlhhhhhhhhs>=9pgpjKVccxccxxcccccxccbccccMFlr0&@-:737,3rxPUDVM",
"kjhhhjhhhhhdr0==3dcd9xKvccccxxllljhxcvMmMMAPAr00=++X*>,<;dCICMvv",
"kkhjhlklgs9:3r>*2scg28jhsgdsdsddsgdshgghkMBxs09w*@;>qsdr;gFAxxxx",
"cxllhhga8::eda>#=9jg3,pggssgdddghssdsdsdsstr9348&#5qrsgd-sAvvmcv",
"usarrq5:;3shgq*+&993;-;2,322:<:<:::;:>:><<>>>:<4-#77wudr:rkfddds",
"::>>;:;&*3871-$o@;;*$+&-====;;;;::::;:--;=-:1:;>=$>5qq7::5q,5,5,",
"*-&&**$#&-;=-*@++$$$+.$$$$*$$$$$$$$$$$$$$$$$$**===;>>>-&:>>>>:;-",
"*-&-;-%&;;;-;**%&&*$$$&-&&&$$$$$$$$$$$$$%*******&&;;:-%&&---&&=-",
"&&*==&*&&***-=;*==;;=:;;;**&*&*$$###@$%$&&%##@@@@O@@@@+++@++X+@%",
"#$-;::;;:;>55yyyaaauuyyq5454<;*&%*;;-;-&---*&&&;,>:--;::>>:$$+@$",
"$qxZAAJLPIIKHGKKIUYUKJJZMMMmg5:-&*exMbbnxxbbbbxbnvbzkdddfhdgsq&#",
"-uZGKJKLIUEYIKAAAJAAAGAZVNZAAbg<*1bGNMMNMnvvbMMvMMvvMvbmvMBKAx-#",
"-dZJJDAADDKPYKMMMMMMMMMMMmMMMMM,:8bLUEUKANMMMMMNNMxllzxbcmDJMz*#",
"$gAJKKJKJKJKEKNNNNNNMMMZZMMMbNb>;9mIWQQUKAMvnnbmvMkklxblxxAZme@#",
"-gDUUUUUYYIIEANAGAAAZNAAANMxkkf;;7MSANmlbxlxxnbnMMMMNnMbxcAcu:-&",
"&aVLIKKLLKKIKNMMMNANAAZAZclhgdy*-7xZlkkkkklkkxlzbMMbnxlMMMxr:rw&",
"&9akhhssdhkxcxMMZZZNNZNxgssuir7-&,kBMkkhlMMMcxxzNNy<<<quda4-wdr&",
"$5ry933wreweeprsdadria86556755,&$>gMHMbxmBAMbxNAl<++$+$;>:-:rs,&",
"@78rwq,>4,<>:>;;>4<:;-;:,,,,5,-@+-udsiity,;--:,:++$$$$$-$$;4,1:-",
"@87rww::7777799<>4;$+$-:>>>>:;$+.*,5>:>>-$$$&*$#+$$$$+$$&*;::-;-",
"$1qrq;&<7w8qqwrq=&$+$->:>::;;-$#@$:51q85--&*-**$$-**-$&-*-;::;;&",
"$;:>-&-::;:;;;=$%$%*:::;;---;--&%$=:<::;-&**$$*-----;-;--;;::;-@",
"++@+@##$##$$###$#$$*-%$$$$&&$$%#$%*%*$%%*&&$$++&*&**&&-%##&&&&+X",
"@$@$###$&-$@*9wq&$qshgsurq,,:&&####%;:<555qwq;++++$+@@XX++#&&$@+",
"tsshghhddd3@ecla=0VKJCZvcclxjgssae9phhhllhghhr%+X%7:+$>>389tssss",
"ghjxhhhhhjj3*dxh2xUUCMMcccvcMcMMMmvcvmMccmjcAv,@@wq-8jxhgggghhhx",
"cMMBMvzzcMVcd;3s9cQQULKJDACDZAAGAAAADKFKJGHPEM7&$7wsvCAACVMcxxcv",
"vMACMcxkxccMAr*:<pKTQTTRULKJJJJKLIPIUUYYYYYWYsq&-dMMMCVVMvvxxxkx",
"ccMMMcxxxxzNAa>$=rMKUQQ!QULKKKLUUIKKKUUUUYW!v9w&:cKAMNMMbczxxxxx",
"ccMMMMMccxbNZpq#=eccMGKKJDDAAAAAGASADFJDASIEfw8&:xKVMMMvMbxxxxxc",
"xMBHKKJANbMAVaq%=9MZlmcmmmmmmMMMMMMMMMVVMMKKseq$<hKxxxjllkkgkkxx",
"MGKSMchdsuidap9#*:lZgdhljcllcxxcxcxbccMMmMNMi7q&9gAhgdhhkkkhgxbN",
"Alaq:-*->>,70pr$%-;e><8rraaapsarr0pprrprrsga,--$2fMhhhkkkxjklmAI",
":;-&#$-:>>>3ep9$$;<q4378wuaurre835738we74>;--$#@>hAkljjlkkxlxAMd",
"*-;=&->2<>:399:*$-;acVmMbnccxxlgarq878rrraaa>-$+=8IAAGZNNMmMNd4;",
";:<:*;;>>::>2;$%%&$$3sggdddsaaurr98q877wigar6,-+*%rahjhgdssa7:=;",
"::=2:---;;::-&&#%&&#$;,754,,>:><,,33,>-;;;;;,7-@$#+*<773373:>><>",
":::::;-;;-*#$**@#$$&+$-;;:;;;;;:::;:;-***&--;;$+$*$$>>>>><>>>>>:",
"44::;;-*%$@$&*&*%%###@&*%==****=-=;***&%$$%&$%$$$$$-=;=;;;-;;::-",
"*&##+@+###$&%$@##$#@@##$#$#$*%&&***&&%&%$%%%%&%%%%&%*&=&===;:>:*",
"**#OOOO@$%*******$$&@;-&@@+@+@@#%%%$$$%$%$&%&&&****=-=&%%%$&&$%%",
"=453448uggkgdkkku1;5issaadgda55;=*7dhmMmmMMlgr,rhlblduisaaurq:--",
":aprsgdgkgkklllMxq6kNMMNMNZAZbu<-;hKKKJAGKJAbuwlAAAmxxllxxxkdda5",
":dgahlhjkkkkllllvd5ylmNmbxcbNks5%:mUUIKJJKJAcgbJKKZNMMMMNNNxkhgq",
"4dhdhmllllllkgklbnd::rhbxlkfsgu:-<MULKKKJAAMbMKIANxxbbmMMvMbxhk5",
":alddxhhhhhhkkgkxMMk7>>qglksad5;*;lAAAMmbbcMGKIJAMxbbbmmbbbxkhg5",
":dxdaxhgddggghkhgkcckr,559eeuq<;*;rdggaagMAKKKZNMVMMMMmlxkkkkkg1",
";dxddMhdddddhhkhhkkvxhddu:;:;:;;%:re5egmZHKANMbbccnmMMmlgddhdsq:",
"-rkkiNbkhhkxxbMMnxkffklbk$$$$**-$:r94gGAGNmmmMvbxfuriui8,,56>;;:",
"-;uq1dbNbxkhddgkduy6qidk1-++$$**$;e9:rNklkkhkkkw;$&*;>;-***$$$-<",
"-;;;;,qwwq77351,<:::;;;;-++$$-**%-q5-<kxllkkku:$$$;>>>>>>:-+$-::",
"-&---;;;;::;;;;;-$-$$@$++++$$-**#*25;$--;:::*$$$-;>><<<<>:-#$;::",
"&&---&&---------&**-$$*++$$$&-&&$*:,;++X++$$@$&:>><>1<><>>-$-;:;",
"=&-&--*&--;----*--*$-*--$$$$=&$&$$;>;$@@#$$$-;::;;:::::>>:-#-::;",
"=&#$%@%&#$$#####$&**----;;;-%%&&&%&&&---;;;;;-*:<:;-;;:;;:>*--;-",
"=&&&&&&&&&&&@@@#%$$$$*&-&$**&&===&&%&$&**-;-&-5xlhu:%%&*--&&&&**"
};
