/* XPM */
static char *result[] = {
/* columns rows colors chars-per-pixel */
"64 64 112 2 ",
"   c #030302",
".  c #080605",
"X  c #060806",
"o  c #0A0906",
"O  c #06080A",
"+  c #0D0C0A",
"@  c #110F0D",
"#  c #14120F",
"$  c #18100F",
"%  c #0E0F10",
"&  c #100F10",
"*  c #151311",
"=  c #1A1512",
"-  c #1D1915",
";  c #181718",
":  c #1E1B19",
">  c #211B17",
",  c #221D19",
"<  c #281F1B",
"1  c #26211B",
"2  c #2A241E",
"3  c #2D291E",
"4  c #31291F",
"5  c #2C2620",
"6  c #2E2921",
"7  c #332D25",
"8  c #382F27",
"9  c #362F28",
"0  c #382F29",
"q  c #373026",
"w  c #3A3226",
"e  c #373129",
"r  c #3B342B",
"t  c #3E382E",
"y  c #3F3A30",
"u  c #40372C",
"i  c #423A2E",
"p  c #443D32",
"a  c #493F33",
"s  c #49402F",
"d  c #474034",
"f  c #4B4236",
"g  c #4D4439",
"h  c #524734",
"j  c #534935",
"k  c #51463B",
"l  c #544B3D",
"z  c #594E3E",
"x  c #57503F",
"c  c #5A503E",
"v  c #61563F",
"b  c #574D40",
"n  c #594F41",
"m  c #575041",
"M  c #5C5244",
"N  c #5F5847",
"B  c #5F5849",
"V  c #615646",
"C  c #635946",
"Z  c #6D5F47",
"A  c #625749",
"S  c #645A4A",
"D  c #6A5D4C",
"F  c #6C5F50",
"G  c #6E6047",
"H  c #6D614E",
"J  c #72644D",
"K  c #76684D",
"L  c #796B4E",
"P  c #6E6351",
"I  c #726652",
"U  c #756A54",
"Y  c #7A6D55",
"T  c #776D58",
"R  c #7B6E58",
"E  c #7E7056",
"W  c #7D7159",
"Q  c #827355",
"!  c #83755C",
"~  c #89775B",
"^  c #85795E",
"/  c #8C7B5D",
"(  c #907E5E",
")  c #877760",
"_  c #8A7761",
"`  c #867B60",
"'  c #8B7C62",
"]  c #907E63",
"[  c #957F68",
"{  c #92805E",
"}  c #8E8165",
"|  c #938364",
" . c #998664",
".. c #9E8B66",
"X. c #938469",
"o. c #998669",
"O. c #9C8B6C",
"+. c #A08C67",
"@. c #A4926C",
"#. c #A8946E",
"$. c #A59374",
"%. c #AA9473",
"&. c #AD9972",
"*. c #B79E7E",
"=. c #B5A077",
"-. c #B6A37B",
";. c #BAA479",
":. c #B6A480",
">. c #C6B485",
",. c #C9B98C",
"<. c #D0BC90",
"1. c #D6C296",
/* pixels */
"    - 3 i u 4 i w 4 q q t s s t u u w w w s h s i s 3 > 3 3 4 4 w w w u 4 4 w 4 1 2 3 w w i h s s s s s s j f s s 4 4 3 3 1 w h ",
"  + l (  ...+.{ { Q L K K L L L Q Q h i / { { { { { ~ j i h Z K Q / { { / Q Q Q G v G ~  .{ { { { G s h K E E L Q Q Q ~ Q Q Q G ",
"  , 8 L  . .{ | {  . . . .{  .+.+.#.{ i L { ..{ ..@.{ j C #.&.@.@.+.....+...+...+./ J J L E Q Q Q L Q {  . . .| { { { { { +.{ J ",
"o 2 2 u E @.| { ..+.#.&.&.&.&.=.;.>.>.x h L Q Q L v s 4 c =.>.*.#.@.@.+.+.+.......+.{ / Q Q ~ { +.#.#.+. . . .O.+.+.@.#.;.+.J f ",
"+ 3 6 r l E W U U E W W E E W W W W $.} V M M M s < < 8 a | ,.&. .| ^ ^ ~ ^ W ^ ) ^ ' / ~ ! ! T L Y Y U I U U T W W Y ` =.P 7 r ",
"+ 6 7 r d M S B N N N N N N N N B S S Y K c k g i 4 r p n R ~ Y I H S S G N N G S D D D A A M A C B A A C N B B A B M B G f e r ",
"O 7 7 r g M B B A B B N B N N N N B S S H D c j i r t z I D z l M N M B M N N N M B M B B M A B N B M A N N M M M B M S A f y r ",
"o 6 7 t k B A S S A S S S S S N A A S A D U U N 8 t l D D M l n M N N N N M N M M M M M V M M M M m M M m M M M M N B A D g t r ",
"O 5 7 t k A A F S S S S A A A V A V S A S P Y M i l D V n n n n m M M b b b l b b b b b n n M M M M M M M M M n M M M A D g y r ",
". 5 7 y b A A A B S A V M V M M M M B A B S D g k V n b n n n n m b b b k l l l k l l l b b M M M M M M M M n M M M M B M g y e ",
"O 6 9 u g B A A S A M M M M M M M n M M S D V p l M n b n n b l b b b l l b l l l b l l b b n n n n n n M M M M M M M B M f t e ",
". 2 r u k A A F P P A M n n M M M M B V B b g t l M n n n n b n b b b b n n n n n b n b b n A A A A F A M n M M M M M B n a y 0 ",
"  , 0 i k F F F I R R A M n A A S D C l e d M q h V n n n n n n b m m m M n n m n M n M M M A F I I Q ! T A n M M n M B b a y e ",
"  > 9 p k F I R R U Q I M b 0 9 r r 6 - = t w = < a l k k k g p p a p d p a p p p p p p a a p b k k a k U F n M M M M M l a t 9 ",
"  * r t k I ! U T U R ! S a - & @ + + # = : - - - $ : , : : - : , : , : > : > , > , > , , , , , , $ & & a F M n M M M M b d t e ",
"    7 r g F R Q R U R _ F p = @ o # # = = : > , > - ; ; = * = ; - = - - - > - : < < , , , : , : ; $ + O 7 A A n M M M M m f y r ",
"    2 r p k V I R R R [ F u = + & - - , , , 5 6 5 5 5 5 5 5 5 < 5 5 9 6 7 6 6 9 6 6 5 5 1 5 5 5 6 5 5 ; < n A n V M M M M a p 0 ",
"    2 8 7 9 i n I R R _ ! p = & , 5 6 6 6 7 0 r 9 7 7 6 9 t 0 0 9 9 9 9 9 9 0 0 9 9 9 9 6 6 5 6 0 9 7 < 9 A A n M M M n A a y r ",
"  o 0 r 6 5 9 a F R T ) _ a = $ 6 r 8 7 7 9 r u u y y y p g a a a p p y 9 0 y 0 r r y r r e r y r 0 9 5 0 F F M M M M A M g y 0 ",
"  - p a u 7 7 i A T T ! [ a $ ; 6 i 0 0 r y p a p u p u p k b a g g a p r p p p a p y a d y a p p p t 5 y F F M A n M M M a y t ",
"+ , a n z a 8 u V T R ! ~ k = > 9 u i i y p a g a p p p p k l k g g g y r g d d g y a a d d d a a p p 7 y T I n M M M n M f y r ",
"+ - 0 n L J p u n I R I I k - > 7 u i i t y a g h g g p p k z l g g p 0 p d g k b b b d a a p d a a p 9 p ! T n n M M M M f y e ",
"+ : 7 a ~ +.M p n D F P I k - - 9 a p i p a g l l M n k p k V V b a 0 a b d g b b a b b g g g a g b b 6 p ) R M n B M M M g y 0 ",
"+ , 6 u Q %.( S S D D I I k - - 8 g g a a l n V D D C n i i n l y y y M b b b b b b b g l l k g b b b 7 a [ ! n n M n M B g y r ",
"+ , 7 p K / { Q P H D P U f : = 7 z l l c S H D H H H C l r r 7 e y V V n n n n l l l l l l k b n n l 7 f ] ) M M M b b b a y y ",
"@ , 9 a I Y H H H H H I U f , = 6 l c M N H D H H H H Z C k r i y b I A M M M m b b l b b g g b n n k 5 r _ _ V b b a t 1 1 9 r ",
"+ < 9 a U J A S P H H P I p > > 5 l M V S H H H D H D G D V z k y n U S D S S V M b b b l l g b M n a , r ! ! m b a y 0 1 5 5 7 ",
"@ , 0 g H H D H H H P I P p , - 2 h v C G S H H G D J I J D V k 7 a R D S S S A M M n b l b b M M M i , 7 S D b p p M F S b y 1 ",
"@ 1 r p A H D P P H P P P p > > 2 f V D D H I H H H J Y Y J I M 6 r R R D S D D S V M M n n m M M b 5 1 6 p f t w S / } E H g t ",
"@ 5 e t V H P H D P P I P y < > 2 t V I J Y Y I D H H Y R U U M 7 u I I I S D S D A V V M M M V M a 7 6 1 8 e 2 f E { { W m 7 t ",
"+ 6 r y m I I H P P P P F y , , 5 t M ! E U T U H H H U E R R M 7 u R Y J F F D S D V V V V V V l t p 8 < 1 2 a U E E ~ U i 3 3 ",
"+ 6 r r z D H F F D F P F t , , 2 t M ' R Y T U H H P U E ~ R M 1 p ~ R D D F J D F D M V V S M f 2 r 6 2 7 r J J V V Y U d 6 2 ",
"+ 5 9 q g M B P P P P U H t > > 3 t M ^ W U T T U D H U E ! Y l , p _ R P F D P D D D A M C S b p * 1 < 7 D ~ Y V V z D J a 4 2 ",
"+ 2 8 e g b k b m A H g q 7 1 : 6 t c ^ W U Y T Y I H U R E U d 7 a F R P F P D H H D A V S m p f - , : t o.[ D V M z V D i 2 2 ",
"+ 2 r e f l b g k g d q q q : 1 2 r c ^ W U Y U Y U D U ! ~ M e r y g F I I D F H P P H M f 6 6 a 3 2 - a / D c M n n V D p 2 5 ",
"+ 5 i t c U W W E W T I m 7 - 1 2 e x } X.W U Y Y Y F R ! A e 6 0 p u b S P P I H D S x r , = 2 e 6 , - h D V V M z V V D p 2 2 ",
"  1 t r C $.$.' T U T E T t ; 3 2 7 f ~ $.X.R Y Y Y H R I r t 7 e a r 0 k S A n g d f q 1 # = t g t - - z H M V M M c M S f 2 2 ",
"  1 0 e N ` U S D D D P I y : 7 7 7 d S ' $.X.E Y I I Y f r t 7 9 f g t 9 u g g d d t 3 1 e x S M t > > c D V V M m m M C p 3 2 ",
"  * 5 7 x W P S S S D S H t 1 q r 8 i f M E ^ I H H H l 6 u t 7 p f p t r p f p d d g g M H I S l t : 1 V Z M n M c m M C d 2 2 ",
"  + , 5 k W T U I H H S H t 1 q f r t p d l l l k l g e 9 y r 9 r e p k M S V V A C S H H S S M g t - 2 C D M c M n M M C d 2 2 ",
"  + > , l ) Y U U P P H H r 1 t f i i p p d g g g g g g p r 7 7 p l S D S H S S S A S A A S S M g u > 2 C D z M M n M n D f 2 2 ",
"  + > < G X.U I U U P U P r 1 d j f i p p d g l b b m M p e 6 p S H D D H H S S S S D D S A S N g u > 4 C Z M z n M n n D k 2 2 ",
"  + - r ' ^ H I U P I U T r : y l f i p p f m M M A D S b y f A Y U P I I T I P P F P U H B B m a a > < S S c M M M z b C g 2 3 ",
"  + 7 V @.W P P U I I I T r : y l i f f p d l M B A S D M b V R _ U I I U I I I U T T U H A B m f a $ > C V M z M z z n S g 2 2 ",
"+ 1 r C O.R P I I I U T Y t : q d w d c g d k m V A F S b b S ) ) P P U P U I U U T I H B C B b g p + , D M M M M M l b S g 1 2 ",
"o 3 w g X.T P I U I U U E i : 3 q 4 t M m m m m M A D V a g P ' R P U P P U T T U P S B A C M f y r + , D V c M M m l b C d 1 3 ",
"+ 3 7 f X.U U I I U I Y W y : 1 7 6 t c S Z H S B V D b a b U ) U U U U T U I P S S S H D B f y t 3 + 1 S n n n n l l b N d 1 2 ",
"X 2 6 p ` Y Y U T I T Y ^ p , 2 3 3 w l V V H J F M M b g B P P P I I U P H S S A A S S S l y p r > - 6 D l n l l l l m N t 2 2 ",
"o 3 6 y ^ Y T U T U I T ` l : 1 2 7 q t l M C S N M M l g M S M M n n n m m b b l l l l l p r t 6 6 1 e F b n l l l b n M 0 < 5 ",
"+ 6 7 t ^ T T U U U U T } H 1 1 3 7 7 q g x M N M M C l d g l k g g g g g g g g g g g g g f i 2 6 g 2 w F n n l a l b n M u < 5 ",
"# 2 6 r W U T U U U U W } ` e : 1 3 3 7 w h g h l b k r 8 e r r 0 r t p d f d d d d t t q 7 > @ 7 r 1 k Q a n z b b b n M 0 < 5 ",
"@ 6 7 q U Y T Y U U U W } O.N 7 3 4 i j x f i i t y r 6 i j u q i z b k k g g a t t e e q 2 - 2 f f r I [ n n n k n a V V 0 2 5 ",
"# 2 9 e P U T T U U U W W X.X.W I E Q } } } ^ W I U P I W E x c O.-.O._ ` W U I S Z H I I Y R R Q Y K %.:.n n k l l b M C 8 2 2 ",
"# 2 6 q A U T U U U U W ^ W ^ } | | } | | X.} X.X.} } } } Y M / <.1.-.$.@. .! E E E E E ! ~ ~ Q Q Y / %._ n n n l l b M C 8 2 2 ",
"@ 2 7 q S W T U U T W W } W W } } ' ' ` ^ ^ ` W ^ ^ } } U x N | :.$.' ! E T H H H H I I I I F F S S S V k b k k l b b b M 7 2 2 ",
"@ 1 6 9 N T Y T W W W } W } W } ' ` ^ ^ ^ E W W W } W H g g C } ' I D A C C V V M C S S A A M M V z z l b k n b b b d m x 6 2 1 ",
"# 2 6 q B T W ^ } ` ` ` ` } ` ` ` ` ` ` ` ` W ` ` ` P x d k H ^ U B N B B A B m M n M V M n n M M M M M m m x m b d j I c 3 2 1 ",
"# 2 6 e m I W ' } } ` } } ` ` ^ ` ` ` ` ` ` ` ` ^ H x d g H W Y H A S B S S B M M M M M n M M n n M M B M M M x y 9 S E M 3 2 : ",
"# 1 7 e g g H } } } } X.X.X.} } } X.X.X.' ` W W H k f g Y O.! S C S S H D S B M M M M M B M M A B M M m M M x t 5 p I U N 3 1 - ",
"# 1 7 q k N f V W W W W W W W } ` ` W W T T T P g y d U @.| H M M M M B S D S M A V A V A B A S M b g f g p 7 3 d Y Y I x , : , ",
"% 1 3 2 w M M r j h d d g g l N M n l k n n M g 3 2 g Y Y b f f g g g f g g k g f f g g g g g g u 9 7 5 3 - > x J G t t 7 = : = ",
"% 1 2 $ - 2 2 > - * # * 1 2 1 2 < < , 5 5 2 6 , = < p g t 7 9 e 8 q e 8 9 0 9 e 9 9 9 0 9 9 7 5 5 , < = = @ j Y x 2 # : : = = * ",
"# 2 2 - > > > : , : , 1 1 1 , 1 < < , , , , : = & , 6 2 , : : : - , , > : : : 1 1 5 < 5 < 5 5 < 5 , = , * q N j 3 = = * * * * # ",
"# - > # # = = = # # # # # * * * = = & & & & % + + + + # & .     + + .   + + + % * ; ; : : ; : : ; ; * - = 1 1 - % X X X X + +   "
};
