/* XPM */
static char *result[] = {
/* columns rows colors chars-per-pixel */
"64 64 123 2 ",
"   c #0E0803",
".  c #150B05",
"X  c #1A0D05",
"o  c #170F0A",
"O  c #1B0E08",
"+  c #1D1006",
"@  c #1D1109",
"#  c #1E1810",
"$  c #231206",
"%  c #291606",
"&  c #2D1806",
"*  c #241409",
"=  c #2A160A",
"-  c #25180D",
";  c #2D190B",
":  c #341C0C",
">  c #391D0C",
",  c #2A1E12",
"<  c #341D11",
"1  c #3A1E12",
"2  c #36200E",
"3  c #3C210D",
"4  c #362112",
"5  c #3C2211",
"6  c #43240D",
"7  c #49250D",
"8  c #45280D",
"9  c #4C290E",
"0  c #51260D",
"q  c #532C0E",
"w  c #592E0E",
"e  c #56310F",
"r  c #5B320E",
"t  c #442511",
"y  c #492610",
"u  c #452912",
"i  c #4C2A11",
"p  c #432919",
"a  c #4C2C19",
"s  c #532D12",
"d  c #592E12",
"f  c #532F1A",
"g  c #553114",
"h  c #5C3312",
"j  c #55321A",
"k  c #5B3519",
"l  c #5C381A",
"z  c #62350E",
"x  c #69350E",
"c  c #65380F",
"v  c #6B3A0E",
"b  c #723C0E",
"n  c #7A3F0F",
"m  c #632F10",
"M  c #623512",
"N  c #693511",
"B  c #653913",
"V  c #6B3A12",
"C  c #643619",
"Z  c #63391A",
"A  c #6C3C19",
"S  c #713311",
"D  c #733E12",
"F  c #7A3C12",
"G  c #723E18",
"H  c #683C22",
"J  c #77430F",
"K  c #7B420F",
"L  c #764112",
"P  c #7C4413",
"I  c #7F4812",
"U  c #75411A",
"Y  c #7B441A",
"T  c #6E4023",
"R  c #764420",
"E  c #813E12",
"W  c #83450F",
"Q  c #814613",
"!  c #8B4613",
"~  c #854A13",
"^  c #8C4C14",
"/  c #814718",
"(  c #864A19",
")  c #8B4D19",
"_  c #924E14",
"`  c #994D13",
"'  c #924E18",
"]  c #8D5113",
"[  c #8C501B",
"{  c #945214",
"}  c #9B5415",
"|  c #9E5815",
" . c #965318",
".. c #9C5518",
"X. c #9D5818",
"o. c #A25513",
"O. c #A35A15",
"+. c #AB5C14",
"@. c #A15618",
"#. c #A35A18",
"$. c #A95D18",
"%. c #B25D13",
"&. c #B35E18",
"*. c #B95E18",
"=. c #A66015",
"-. c #AB6116",
";. c #AB6118",
":. c #B46114",
">. c #BA6414",
",. c #BA6916",
"<. c #B46418",
"1. c #B96218",
"2. c #B46818",
"3. c #864C20",
"4. c #8A4E21",
"5. c #915221",
"6. c #985620",
"7. c #9D5922",
"8. c #A35A20",
"9. c #C46C16",
"0. c #C86818",
"q. c #CC7016",
"w. c #C97019",
/* pixels */
"i : = : * ; s Z d t > t < < f G U U U g 2 = @ X > s j j u V ~ ^ ~ ^ ^ L 9 3 M ~ O.+.+.-.+.;.+.O.O.O.^ ~ L L } O.O.O.O.| ] D D M ",
": = : : * - i C C s = - ; ; : y i u ; * + @ @ * u j j l i V ^ ^ Q Q V 9 > 9 L ] | +.-.+.+.+.{ ^ ~ L J L I Q { O.+.-.+.^ V w q 7 ",
"= ; 1 ; @ @ : a f t : i h 5 - ; - @ @ * @ @ @ * t j C Z 9 h Q ^ F r 6 ; : z L { } | O.O.| ~ L D V B M c V V V x J J v 9 6 6 3 > ",
"* : : O @ ; ; ; : 7 L Q Q L M s ; 8 h B B g : * : i Z k u q V v 8 ; * * : r J ~ P D D F D B c d 9 9 q h M M e h 9 8 6 > > > : * ",
": ; @ ; u i ; @ 2 L I I Q ~ ~ L 9 8 c L L L h 3 = * 5 > 3 s 8 2 = O @ * - 9 V V M M w w 9 s y 6 6 t y y 8 y 9 0 6 > > : & & = = ",
": * : h h 9 * @ 5 J ~ J I ^ ] ] J 9 9 c L L L h : * * * > 6 2 : = = = O @ 6 s 9 w r w 6 6 y 6 y d M N D F P F M 6 : : ; = = : 1 ",
"= : 9 8 8 3 * @ 9 L L J K ^ _ { ] L q q l L L h g : @ - * : : ; = : : O @ : 9 9 9 w s 6 6 y h ~  . .} ` |  .} _ F s 6 > > > 1 = ",
"> 7 9 9 q q : * 9 h L L K I ~ ^ ] ] I L 9 e r g 9 8 ; @ O $ = 3 6 7 3 * @ ; 7 s h h s > i S ^ ....@.........} } ' N i t t > = $ ",
"q z W ` ` W r % 3 c J ~ ] ^ K W ] { { ~ L c e 9 9 8 3 * X * ; 9 r M 0 = O * : y s y 5 > V  .#.#.@.........@.o. .~ N s y > * * > ",
"J ` +.+.+.o.K & 8 J { %.+.o.{ ] W ^ _ ^ ] ~ c q 8 3 3 @ $ : 8 c Q L w ; O * * ; 1 > t d U  .$.$.@...@.#.#.o. .Q N d i 1 * O : z ",
"` o.+.+.+.o.W 3 c { =.+.O.o.o.{ ^ Q W _ { ] L v q 2 & . * 3 h b ~ L d < ; = * = 5 3 t s k U  .$.#.....#. .^ F M d i : * X > v W ",
"o.%.%.%.+.+.] 0 L { %.+.o.o.o.{ ^ ~ Q L ~ ^ ^ I L 3 = . * d L F P D 6 < 1 ; * > k : ; : 5 u k F ( ..) / F h s y 5 : * . & b ^ ` ",
"%.:.>.>.%.+.` z v _ +.O.} } o.{ ^ ~ ~ Q L I ^ ^ J 8 + . = e z e h 0 ; ; 1 : * y C : * * * ; > 3 6 0 i 8 6 : & * $ + X $ v ` o.%.",
"+.:.>.>.>.+.o.K v K ^ } o.o.} } ^ ^ _ { L b W ^ L 3 . . & 9 9 7 6 : * * , < * : i s C a = + * = ; ; ; ; & * $ $ X X + r ` +.:.:.",
"+.>.>.9.>.+.o.^ v v b J ^ } } ` ^ { } | ~ b ~ { J 2 . + > 8 2 = & = % $ = ; O = V Y Y U g ; $ X O % = * + + $ X X X 3 ! +.%.:.+.",
"+.>.:.:.o.o.} ^ r r v v ~ { { _ { } o.{ L L { { v 2 + = ; > ; = > 6 7 6 = ; O = Q ( Y U A 8 : % X . . X O O O O X & v o.+.%.%.+.",
"%.>.>.%.` ` ` J 9 w x J K ~ ^ _ { { { L V I { L 8 + * * : 3 8 9 V F P P s ; = * M A G Y U h 7 3 =   X $ % $ $ O X > W +.+.:.+.+.",
"%.>.9.>.` ` W b q 9 r J K ~ ~ ~ Q L v B V J v q & * : = 8 M F P Q ~ ^ ( C * * + q k j M F L G 7 : $ X $ % % % % % 7 K ` o.+.+.o.",
"%.>.>.>.o.W K v w 3 8 v J L D V c h B V c 9 8 : * > 6 i D Q Q I ~ ^ ^ ) L i @ + 8 g k k j f q 6 > > & : % > 6 > : 3 z b K o.%.%.",
"! ! ] W K J b x w 6 6 r c c h e h h r e 6 6 3 $ : : h P Q Q Q Q ~ ^ ^ ) I Z 3 $ > i a i 5 3 : 3 8 0 M V 6 3 9 9 6 = 7 q z K ` _ ",
"J b v v b v x r w 9 9 q q q 9 9 9 8 6 3 2 3 % % > 6 L ) ^ ~ ~ E ~ ) ~ ( Y A g : ; 3 3 : : : 8 9 w V U U i > 9 9 7 > 3 9 w z x b ",
"b b v x x v v w 9 9 8 6 8 8 8 6 3 3 & & % + + 2 : d ~ ) ) ) ~ P I ~ ~ P P A M h u = ; ; $ ; 7 9 c G V h 3 ; 8 q 9 6 : 6 w r z x ",
"x x x z x v r 3 3 8 q q 9 9 q q 9 9 9 : % . ; 2 > A ( ) ^ ~ Q P Q ~ Q F A M B M h i < @ * = > 9 q q 9 8 > ; 7 q q 9 3 > q r r z ",
"r w r r r w 6 3 6 9 9 r r x z r r w 8 3 ; % % $ y Y ) ) ~ P Q ~ Q ~ Y F V B N M M d t ; ; > ; : 8 7 3 3 : > 9 w w 0 8 6 q w r w ",
"w r w w 9 6 6 6 6 6 q r r v z r 9 6 3 2 * ; * @ 8 L P P L P ~ ~ Q ~ Q G M N B B M M s > : : = * > 6 3 > : 0 V e q 9 q 9 6 q q q ",
"9 8 6 : : : : > 3 3 3 3 3 9 9 8 6 3 : + : 5 @ * u L P L D P ~ ! P Q / S M M B N M M s > * * * = : 3 3 > 9 V M 0 9 9 9 8 > : 6 q ",
"q w w 9 6 3 > & : & & & & > 3 > 2 ; + % u ; * = 3 G L L G L ~ ~ F P Q V C m M d h h q ; O = : > > > 8 q h B M 9 6 6 6 3 : & 3 9 ",
"6 9 q q q w 0 > % % & & & ; % @ X o + ; < : * = : h V G F P ~ ~ Q Y P V M M M d e s : = > h d d 6 > 6 q e e q > 2 : & % $ % $ % ",
". : 6 6 6 w 9 > : 3 9 e M B h d 9 6 3 > > : = * = > 0 d h h z m r z z c d M M d w 6 = 3 V L V B 0 : = 6 9 6 > : & & & & $ +     ",
"+ & 6 8 6 6 6 > r v F P Q Q Q P P J F M s t = : > = ; 7 q 9 7 7 8 6 3 7 9 d h h 9 : > z Q I F V 9 ; = % & & & & : & : = % & % + ",
"+ . . > 9 r x W ~ ^ ^ ^ ^ ^ ^ ^ ^ ^ ~ ^ Q L N i 6 3 > > > : > 6 > : & 3 7 7 w M 7 > w L ~ ^ ! F 0 6 & = * * $ $ * * * = : : ; * ",
"8 9 9 3 6 n ~ ] _ _ _ ^ _ _ ) _ _ _ _ ^ ^ ! L d 3 > t 6 > : & & & : 8 9 7 6 6 > : > 9 G P F M 9 1 t 7 > > t y i 0 d s s 6 u 6 6 ",
"9 M B B } #. . . . . . . . . .{  . . .' ' ^ ) Z ; 6 F V z i > ; > 9 h r q 9 6 & : : 3 9 q s y t 7 h M h V F I ^ X.#.....~ M 8 3 ",
"> s r O.,.#... .X.....X.#.#.#... ......... .^ Y ; g ] Q S M 9 ; 7 r r e w 6 t s h U [ ) U F h 9 ^ +.#.@...@.@.X.#.#.$.+.} L V 7 ",
": 6 ] 9.<.#.X.#.#.@.#.$.;.;.#.#...@.X...@.#. ./ 3 h  .~ V V 9 : q z r 0 6 i M / #.#.#.#.( I B F ;.<.$.#.#.#.#.#.#.#.#.! F F F 7 ",
"& x 9.w.;.#.#.#.#.#.#.$.=.=.#.#.#.#.#.#.#.@...( 9 s ] _ F V 9 ; e r s 9 s F ' $.;.=.#.#.X.~ M ^ $.;.#.#.#.#.#.O.$.O.Q D V S N 3 ",
"9 =.q.q.9.#.X.O.#.#.#.O.+.=.#.;.;.-.+.#.o.}  .~ s y L  .I v 8 : q 0 7 w A _ #.$.;.;.$.#.#.~ w { +.;.$.#.#.;.;.#.^ M s d m S 0 > ",
"^ q.q.q.,.O.#.O.#.#.O.O.-.#.#.X.#.| | { ) ~ ^ ) L t k I [ M 3 > 8 8 7 M Q  .#.#.;.;.;.;.;.F h  .-.<.$.;.<.+.^ V q 7 8 9 m w 3 8 ",
",.9.9.q.,.-.=.O.O.=.-.-.=.{ ]  . .{ { ) ^ ) ^ ) / s > V L M 3 : 6 8 8 V ^ #.#.#.;.<.2.<.#.V q _ -.1.;.+.#.L e 7 8 7 7 i 9 > > N ",
"q.9.9.,.;.=.=.O.+.2.-.+.X.{  .{ { { ) ^ ) ^ ) ] ~ h = 9 V h 3 3 8 7 9 P  .#.#.$.<.,.<.1._ M 0 Q $.1.$. .F s 9 u 7 i i y > % 9 #.",
"9.9.,.=.} | =.=.=.+.#.} {  .{  .[ ^ ] ^ ) ) ~ I U q * 5 B u 3 3 9 0 r Q X.#.#.;.<.*.&.#.Q N 8 A ` o._ D s 9 i 7 u 8 6 6 = > F 0.",
"9.,.=.{ ] ^ _ _ { { { )  .] ^ [ ) ] ~ ~ I P D V B i - ; u t 9 q 9 w V Q X.#.;.2.1.&.$.@.Q D 7 d ~ Q V s 9 y 7 t 6 > 1 < = 0 ` 0.",
"] Q P L I L J J L B N B B V V V V V A V V V M h B j - + 3 M V r q z L ~ X.;.2.<.*.$.#.#. .L M w M s i 7 7 y 6 : ; ; , ; & w E o.",
"b v D D D D B c M M M M h h h h h h h h h h e C Z u * 2 k Q Q L B V F ^ #.<.<.<.#.@.#.$.;.^ F 6 : ; : 5 > : , = : : ; ; 6 S E Q ",
"V V V B c B M h M M M M M h h M M M M h h M M Z f = = g P ^ / ~ L V V ` ;.1.;.+.#.$.$.<.#.F d < = : ; ; : * - ; ; = = = 7 S E F ",
"C M B M M M M B M M B M M M M M h h M h h h h 8 : @ 3 V ) ) ! ^ P z V @.1.1.*.$.&.*.*.*.Q h y ; ; 6 > 6 : * = ; ; : : : 6 m F S ",
"6 y i i i s g h M M h M h M M h M M h h s 6 3 2 : @ d P ) ~ Q ^ L e V +.1.*.*.$.&.*.*.' C 9 t < = 3 y ; * 2 9 c V N h 5 = 3 s 0 ",
"; ; 2 3 u t 3 8 s h e h h h h h h s u u 3 9 s g 9 - G ~ ! ~ ^ ^ F 9 D +.1.1.&.&.&.$.! s 3 3 > ; * $ = = 9 v ~ P L L P B = = 6 1 ",
"5 g V V F V M s 5 5 : 5 3 5 6 3 : : 5 i g l h h 8 3 P ) ~ ~ ^ ^ b 7 S *.1.&.$.&.$./ u : 2 2 : ; O . = 7 v Q ~ I I K J J ; - 2 3 ",
"h M M B c M V V h 6 < : ; ; - - * - : u q h k g 3 9 Q ~ ~ ~ ^ ! c 7 E *.&.*.$.| F u ; : 3 ; ; ; o o > d K W ~ ~ ~ J K v ; - = 2 ",
"6 q h v V V M e 8 3 > > 6 : = = ; ; < > 2 3 2 2 ; i P ( / ^ _ ~ e 6 x o.#.@.~ q 5 5 : 4 2 : - # * = 6 x J Q ~ ~ J K J q ; 5 2 ; ",
"* : 9 q q w 6 ; - = ; > > < 6 6 6 t i y 6 5 = * - 9 G I ~ ^ ^ Q w > > w A d 3 2 : : u 5 ; ; 2 5 s > 7 v L b b P I ~ J 2 6 L h ; ",
"= O * ; ; * ; , 3 i i i q d i i y i s d i 1 ; 5 : y w N Q ~ ^ P 0 6 u t 8 3 3 3 t 6 u : % 3 r L A 8 9 D b m 0 x v v 9 > r I B u ",
"1 @ o * ; ; 4 s B V D V V V d y s s h j p ; : a 4 t s h V Q P V 8 9 g h h l l L A 8 4 ; 2 c J I B 3 : 0 7 > : : > : & ; r B l i ",
"2 3 i u , 5 M L L P L F L F C i w s h a 6 ; p j p t i i s M d 6 > g g B L U I / / g ; = 9 J L L h : @ * $ * $ @ - * % * ; 4 8 u ",
"3 h V L 3 9 D P P P P L L L h f k h k i < : f l f t t y i y 1 : > 9 a j h U J I B 3 * @ ; h M e y ; @ @ $ O = 5 5 3 ; - - - ; ; ",
"9 z M s : 0 D P I P P F I V f B G m f 1 ; k R j a a t y i y > : = 6 i 4 < u g u ; # * $ ; 6 3 & : ; ; * ; 8 h V L B e > : : ; ; ",
"6 0 i > = 3 P Q P I P P G s h G G s 1 O 4 3.5.H p p t 3 6 6 6 > : 3 t ; @ * = @ + % 3 c L L b v c z 9 8 h V L L L L K c 9 2 2 3 ",
"> : < * $ 3 C Q ~ Q P B d d C Y h , # 4 H 4.5.R t 1 5 t 1 y 0 M v F V q @ o @ O $ 3 J ] I ~ ] ] ] ^ ~ J L P ~ K I ~ ^ ~ c 3 > > ",
"> : ; * * i s d B C d i d C / F , * 5 T 4.3.5.l = = > 1 y s G ~ ~ ^ ^ ~ s @ o - % v W | | } { ] ] ] ] ^ ~ ~ ~ Q K ] ] ~ I 9 ; : ",
": > > = ; s s s 0 a i d A / / t ; a T 4.3.7.) < * O ; 5 y B / ^ ^ ^ ^ { ~ s # , 3 K } +.:.:.=.| { ^ ~ ~ ~ K I D Q { { ~ ~ v 3 : ",
"> 6 8 6 ; 3 s s f d C A G Y i < j T 3.( 6.7.s * O O : p i V / ^ F ^ ^ _ ( D < * e ~ | =.:.>.,.>.O.^ ~ W ~ Q K L ] { { { ] Q q 2 ",
"> > 6 6 = : t 1 i m A G G d : i Z Y ..8.8.C ; * o - i s i V / Q V Q ~ _ ~ G < - J ] +.=.+.:.>.,.+.{ ~ I ~ ~ L ~ { | | | } ] v 9 ",
"t > > 6 * ; t 0 6 1 d C d 1 s C T U 4.) A 1 = X O 1 A j y V ) ^ ^ ^ _ ' ~ h ; 6 ~ +.%.%.=.=.:.>.:.+.] W ] Q ~ { #.O.| } ] [ L B "
};
